<svg width="185" height="57" viewBox="0 0 185 57" fill="none" xmlns="http://www.w3.org/2000/svg">
<path d="M177.478 0H7.13557C3.1947 0 0 3.19962 0 7.14654V49.077C0 53.0239 3.1947 56.2235 7.13557 56.2235H177.478C181.419 56.2235 184.614 53.0239 184.614 49.077V7.14654C184.614 3.19962 181.419 0 177.478 0Z" fill="black"/>
<path d="M16.7609 22.991C13.7852 28.1912 15.6981 36.098 19.0078 40.8725C20.6475 43.275 22.3175 45.4037 24.6252 45.4037H24.7466C25.656 45.3538 26.5451 45.1157 27.358 44.7043C28.2082 44.3698 29.0583 43.9744 30.4551 43.9744C31.4712 43.9793 32.4712 44.2297 33.37 44.7043C34.1899 45.0388 34.9793 45.4037 36.1939 45.3733C38.7749 45.3125 40.3538 43.0013 41.7505 40.9638C42.8167 39.424 43.6458 37.7325 44.21 35.946C44.2708 35.8243 44.1797 35.6723 44.0582 35.581H44.0278C43.5724 35.3986 39.5947 33.6348 39.5643 28.7994C39.5036 24.8764 42.54 22.8085 43.1473 22.4132H43.1777C43.2384 22.3523 43.2991 22.2915 43.2991 22.2307C43.3201 22.1487 43.3092 22.0617 43.2687 21.9874C41.1736 18.9159 37.955 18.4597 36.6797 18.3989H36.1028C34.5846 18.3989 33.1271 18.9767 31.9733 19.4329C30.8195 19.8891 30.4551 20.0411 29.9693 20.0411C29.4834 20.0411 28.7547 19.7674 27.9349 19.4329C27.115 19.0984 25.6272 18.5206 24.3216 18.5206H24.2304C22.7067 18.5598 21.2188 18.9918 19.9104 19.7749C18.602 20.558 17.5173 21.6656 16.7609 22.991Z" fill="white"/>
<path d="M36.6809 9.94417C34.8591 10.005 32.6425 11.1302 31.3368 12.6811C30.0312 14.2321 29.1202 16.148 29.4239 18.3071C29.4236 18.3418 29.4308 18.3762 29.4448 18.4078C29.4589 18.4395 29.4795 18.4679 29.5054 18.4909C29.5313 18.5139 29.5618 18.5312 29.5949 18.5414C29.6279 18.5517 29.6628 18.5548 29.6972 18.5504H30.0615C31.853 18.5504 33.7963 17.5469 35.102 15.9655C36.4076 14.3841 37.1971 12.1033 36.9845 10.157C36.9645 10.093 36.9238 10.0373 36.8689 9.99882C36.814 9.96031 36.7479 9.9411 36.6809 9.94417Z" fill="white"/>
<path d="M57.752 12.8338H61.2135C62.0596 12.8111 62.897 13.0103 63.6426 13.4116C64.3251 13.7621 64.8938 14.3001 65.2822 14.9625C65.6748 15.6464 65.8742 16.4243 65.8592 17.2129C65.8782 18.0117 65.6787 18.8004 65.2822 19.4937C64.8938 20.1562 64.3251 20.6941 63.6426 21.0447C62.897 21.4459 62.0596 21.6451 61.2135 21.6225H57.752V12.8338ZM61.1527 21.0447C61.9004 21.0635 62.6412 20.8963 63.3086 20.5581C63.8998 20.2545 64.3943 19.791 64.7357 19.22C65.0737 18.6065 65.2415 17.9134 65.2215 17.2129C65.2375 16.5225 65.0698 15.8403 64.7357 15.2362C64.4024 14.6588 63.9058 14.1932 63.3086 13.8981C62.6412 13.56 61.9004 13.3928 61.1527 13.4116H58.3896V21.0447H61.1527Z" fill="white"/>
<path d="M68.7754 21.2576C68.2947 20.9588 67.8895 20.5529 67.5912 20.0716C67.3084 19.5379 67.1623 18.9423 67.1661 18.3381C67.1622 17.7437 67.3085 17.1579 67.5912 16.6351C67.8722 16.1403 68.2812 15.7305 68.7754 15.4491C69.2812 15.1534 69.8599 15.0059 70.4454 15.0234C71.0309 15.0059 71.6095 15.1534 72.1154 15.4491C72.6154 15.7228 73.0264 16.1344 73.2996 16.6351C73.5823 17.1579 73.7286 17.7437 73.7247 18.3381C73.7285 18.9423 73.5824 19.5379 73.2996 20.0716C73.0098 20.5596 72.6027 20.9673 72.1154 21.2576C71.6045 21.5408 71.0293 21.6874 70.4454 21.6833C69.8615 21.6874 69.2863 21.5408 68.7754 21.2576ZM71.7814 20.7406C72.194 20.5294 72.525 20.1872 72.7227 19.7675C72.971 19.3328 73.097 18.8388 73.0871 18.3381C73.0926 17.838 72.9669 17.3451 72.7227 16.9088C72.5162 16.4953 72.1875 16.1555 71.7814 15.9357C71.3802 15.6884 70.9164 15.5617 70.4454 15.5708C69.9748 15.5651 69.512 15.6915 69.1094 15.9357C68.71 16.1643 68.3835 16.5017 68.1681 16.9088C67.9239 17.3451 67.7982 17.838 67.8037 18.3381C67.7938 18.8388 67.9197 19.3328 68.1681 19.7675C68.3746 20.181 68.7033 20.5208 69.1094 20.7406C69.512 20.9848 69.9748 21.1112 70.4454 21.1055C70.9164 21.1146 71.3802 20.9879 71.7814 20.7406Z" fill="white"/>
<path d="M84.8362 15.0542L82.3464 21.6229H81.7391L79.5529 15.9361L77.3363 21.6229H76.7594L74.2695 15.0542H74.8768L77.063 20.9235L79.2796 15.0542H79.8261L82.0427 20.8931L84.2593 15.0542H84.8362Z" fill="white"/>
<path d="M91.4256 15.7239C91.9166 16.2968 92.1669 17.038 92.1239 17.7918V21.6236H91.5166V17.8526C91.5517 17.2316 91.3449 16.6211 90.9397 16.1496C90.7342 15.9532 90.4909 15.8007 90.2247 15.7014C89.9585 15.602 89.6749 15.558 89.3912 15.5718C89.0553 15.5521 88.7191 15.6043 88.405 15.7249C88.0908 15.8455 87.806 16.0318 87.5693 16.2713C87.3394 16.5198 87.1617 16.8121 87.0469 17.1308C86.9322 17.4495 86.8827 17.7881 86.9013 18.1263V21.6236H86.2637V15.0548H86.871V16.4842C87.0971 16.0411 87.4447 15.6719 87.8729 15.4198C88.3636 15.1441 88.9199 15.0074 89.4823 15.0244C90.1964 14.9941 90.8941 15.2452 91.4256 15.7239Z" fill="white"/>
<path d="M94.707 12.3174H95.3447V21.6231H94.707V12.3174Z" fill="white"/>
<path d="M98.8652 21.2576C98.3846 20.9588 97.9793 20.5529 97.681 20.0716C97.3983 19.5379 97.2522 18.9423 97.2559 18.3381C97.2521 17.7437 97.3983 17.1579 97.681 16.6351C97.962 16.1403 98.3711 15.7305 98.8652 15.4491C99.3711 15.1534 99.9498 15.0059 100.535 15.0234C101.121 15.0059 101.699 15.1534 102.205 15.4491C102.705 15.7228 103.116 16.1344 103.389 16.6351C103.672 17.1579 103.818 17.7437 103.815 18.3381C103.818 18.9423 103.672 19.5379 103.389 20.0716C103.1 20.5596 102.693 20.9673 102.205 21.2576C101.694 21.5408 101.119 21.6874 100.535 21.6833C99.9513 21.6874 99.3762 21.5408 98.8652 21.2576ZM101.871 20.7406C102.284 20.5294 102.615 20.1872 102.813 19.7675C103.061 19.3328 103.187 18.8388 103.177 18.3381C103.182 17.838 103.057 17.3451 102.813 16.9088C102.606 16.4953 102.277 16.1555 101.871 15.9357C101.47 15.6884 101.006 15.5617 100.535 15.5708C100.065 15.5651 99.6018 15.6915 99.1992 15.9357C98.7998 16.1643 98.4734 16.5017 98.258 16.9088C98.0137 17.3451 97.8881 17.838 97.8936 18.3381C97.8837 18.8388 98.0096 19.3328 98.258 19.7675C98.4645 20.181 98.7931 20.5208 99.1992 20.7406C99.6018 20.9848 100.065 21.1112 100.535 21.1055C101.006 21.1146 101.47 20.9879 101.871 20.7406Z" fill="white"/>
<path d="M109.798 15.631C110.025 15.8749 110.202 16.1621 110.316 16.4755C110.431 16.7889 110.482 17.1223 110.466 17.4557V21.622H109.858V20.4664C109.643 20.8397 109.327 21.1452 108.947 21.3483C108.496 21.5762 107.996 21.691 107.49 21.6828C106.871 21.7119 106.261 21.5296 105.759 21.1658C105.564 20.9963 105.408 20.7858 105.303 20.5493C105.198 20.3128 105.147 20.0561 105.152 19.7973C105.141 19.5496 105.188 19.3027 105.288 19.0759C105.388 18.8491 105.539 18.6485 105.729 18.4897C106.124 18.1247 106.731 17.9727 107.581 17.9727H109.828V17.4253C109.843 17.1762 109.808 16.9266 109.724 16.6914C109.641 16.4563 109.511 16.2404 109.342 16.0568C109.144 15.8822 108.913 15.7492 108.663 15.6657C108.412 15.5821 108.148 15.5496 107.885 15.5702C107.46 15.5641 107.038 15.6363 106.64 15.7831C106.272 15.924 105.933 16.13 105.638 16.3913L105.304 15.9352C105.655 15.642 106.056 15.4153 106.488 15.2661C106.954 15.0917 107.448 15.0091 107.945 15.0228C108.617 14.9848 109.279 15.202 109.798 15.631ZM108.978 20.7705C109.369 20.5043 109.667 20.1212 109.828 19.6757V18.4593H107.581C107.092 18.4272 106.606 18.5438 106.184 18.7938C106.048 18.9159 105.939 19.0661 105.866 19.234C105.793 19.4019 105.756 19.5837 105.759 19.7669C105.749 19.9617 105.788 20.1558 105.873 20.3313C105.958 20.5068 106.086 20.6578 106.245 20.7705C106.626 21.0631 107.102 21.2039 107.581 21.1658C108.076 21.1837 108.565 21.0454 108.978 20.7705Z" fill="white"/>
<path d="M118.875 12.3174V21.6231H118.237V20.0721C118.009 20.5742 117.626 20.9898 117.144 21.2582C116.666 21.5406 116.121 21.6877 115.565 21.6839C114.982 21.684 114.408 21.5376 113.895 21.2582C113.424 20.9583 113.029 20.5522 112.742 20.0721C112.459 19.5385 112.313 18.9429 112.316 18.3387C112.313 17.7346 112.459 17.139 112.742 16.6053C113.021 16.1272 113.418 15.7292 113.895 15.4497C114.403 15.1569 114.98 15.0096 115.565 15.0239C116.117 15.0139 116.662 15.1503 117.144 15.4193C117.597 15.7099 117.972 16.1065 118.237 16.5749V12.3174H118.875ZM116.962 20.7412C117.362 20.5126 117.688 20.1751 117.903 19.768C118.127 19.3252 118.242 18.8351 118.237 18.3387C118.238 17.8428 118.124 17.3534 117.903 16.9094C117.679 16.5087 117.355 16.1733 116.962 15.9363C116.548 15.6925 116.076 15.5664 115.596 15.5713C115.125 15.5657 114.662 15.6921 114.26 15.9363C113.86 16.1648 113.534 16.5023 113.319 16.9094C113.084 17.3481 112.968 17.8412 112.985 18.3387C112.965 18.8366 113.081 19.3304 113.319 19.768C113.525 20.1816 113.854 20.5214 114.26 20.7412C114.662 20.9854 115.125 21.1118 115.596 21.1061C116.076 21.1111 116.548 20.9849 116.962 20.7412Z" fill="white"/>
<path d="M125.617 21.2584C125.13 20.9681 124.723 20.5604 124.433 20.0724C124.15 19.5388 124.004 18.9431 124.008 18.339C124.004 17.7445 124.15 17.1587 124.433 16.636C124.706 16.1353 125.117 15.7236 125.617 15.45C126.121 15.1495 126.701 15.0016 127.287 15.0242C127.873 15.0067 128.451 15.1542 128.957 15.45C129.451 15.7314 129.86 16.1411 130.141 16.636C130.424 17.1587 130.57 17.7445 130.567 18.339C130.57 18.9431 130.424 19.5388 130.141 20.0724C129.843 20.5538 129.438 20.9597 128.957 21.2584C128.446 21.5416 127.871 21.6882 127.287 21.6842C126.703 21.691 126.127 21.5442 125.617 21.2584ZM128.623 20.7415C129.029 20.5216 129.358 20.1818 129.565 19.7683C129.813 19.3337 129.939 18.8397 129.929 18.339C129.934 17.8388 129.809 17.346 129.565 16.9097C129.349 16.5026 129.023 16.1651 128.623 15.9365C128.221 15.6923 127.758 15.5659 127.287 15.5716C126.807 15.5666 126.335 15.6928 125.921 15.9365C125.529 16.1656 125.213 16.5037 125.01 16.9097C124.766 17.346 124.64 17.8388 124.646 18.339C124.636 18.8397 124.762 19.3337 125.01 19.7683C125.205 20.1797 125.524 20.5199 125.921 20.7415C126.335 20.9852 126.807 21.1114 127.287 21.1064C127.758 21.1121 128.221 20.9857 128.623 20.7415Z" fill="white"/>
<path d="M137.639 15.7239C138.13 16.2968 138.381 17.038 138.338 17.7918V21.6236H137.73V17.8526C137.73 17.0924 137.548 16.545 137.154 16.1496C136.948 15.9532 136.705 15.8007 136.439 15.7014C136.172 15.602 135.889 15.558 135.605 15.5718C135.27 15.5578 134.935 15.6126 134.622 15.7329C134.308 15.8532 134.023 16.0364 133.783 16.2713C133.553 16.5198 133.375 16.8121 133.261 17.1308C133.146 17.4495 133.096 17.7881 133.115 18.1263V21.6236H132.508V15.0548H133.085V16.4842C133.313 16.0327 133.673 15.6614 134.117 15.4198C134.595 15.1405 135.143 15.0034 135.696 15.0244C136.41 14.9941 137.108 15.2452 137.639 15.7239Z" fill="white"/>
<path d="M147.388 21.1953C147.224 21.3576 147.028 21.4822 146.811 21.5603C146.564 21.6326 146.309 21.6734 146.052 21.6819C145.813 21.694 145.573 21.6571 145.349 21.5734C145.124 21.4898 144.919 21.3611 144.746 21.1953C144.588 21.0185 144.466 20.8118 144.387 20.5873C144.309 20.3628 144.276 20.125 144.291 19.8877V15.5998H143.076V15.0524H144.291V13.623H144.898V15.0524H146.993V15.5998H144.898V19.8269C144.882 20.1769 144.989 20.5215 145.202 20.8C145.323 20.914 145.467 21.0023 145.623 21.0598C145.78 21.1173 145.946 21.1427 146.113 21.1345C146.491 21.1487 146.86 21.0182 147.145 20.7696L147.388 21.1953Z" fill="white"/>
<path d="M154.278 15.7234C154.764 16.21 154.976 16.9094 154.976 17.7913V21.6231H154.369V17.8522C154.369 17.0919 154.187 16.5445 153.792 16.1491C153.587 15.9527 153.343 15.8002 153.077 15.7009C152.811 15.6015 152.527 15.5575 152.244 15.5713C151.908 15.5573 151.574 15.6121 151.26 15.7324C150.947 15.8527 150.662 16.0359 150.422 16.2708C149.971 16.7814 149.733 17.4449 149.754 18.1259V21.6231H149.146V12.3174H149.754V16.4228C149.99 15.9947 150.336 15.6377 150.756 15.3889C151.243 15.1369 151.786 15.0114 152.335 15.0239C153.049 14.9936 153.747 15.2447 154.278 15.7234Z" fill="white"/>
<path d="M163.117 18.4912H157.499C157.49 18.9726 157.616 19.447 157.864 19.8597C158.105 20.2527 158.452 20.5692 158.866 20.772C159.297 20.996 159.777 21.1109 160.262 21.1065C160.669 21.1049 161.072 21.0222 161.447 20.8632C161.803 20.7227 162.117 20.4922 162.358 20.1942L162.722 20.5895C162.433 20.9444 162.056 21.217 161.629 21.3802C161.194 21.5914 160.715 21.6957 160.232 21.6843C159.629 21.6881 159.034 21.5418 158.501 21.2586C158.007 20.9772 157.598 20.5674 157.317 20.0725C157.011 19.547 156.853 18.9477 156.862 18.3391C156.858 17.7446 157.004 17.1588 157.287 16.6361C157.537 16.1386 157.927 15.726 158.41 15.4501C158.892 15.1495 159.453 15.0011 160.02 15.0243C160.576 15.0054 161.126 15.1536 161.598 15.4501C162.073 15.7233 162.462 16.1234 162.722 16.6057C162.994 17.1312 163.13 17.7169 163.117 18.3087V18.4912ZM158.775 15.8758C158.404 16.0809 158.099 16.3866 157.894 16.7578C157.655 17.1314 157.519 17.5615 157.499 18.0046H162.509C162.486 17.5663 162.361 17.1394 162.145 16.7578C161.913 16.3978 161.601 16.0961 161.234 15.8758C160.864 15.6658 160.444 15.5606 160.02 15.5717C159.585 15.5566 159.154 15.6618 158.775 15.8758Z" fill="white"/>
<path d="M67.0139 41.0566H59.5139L58.0565 44.5234H55.1719L61.9127 29.5005H64.6758L71.4167 44.5234H68.5321L67.0139 41.0566ZM66.103 38.867L63.2791 32.2983L60.4552 38.867H66.103Z" fill="white"/>
<path d="M82.4097 33.6661C83.2813 34.1434 83.9979 34.8611 84.4744 35.734C84.9883 36.6749 85.2498 37.7332 85.2335 38.8055C85.2418 39.8769 84.9807 40.9332 84.4744 41.877C83.9979 42.75 83.2813 43.4677 82.4097 43.945C81.4963 44.4389 80.4719 44.6902 79.434 44.6748C77.8854 44.6748 76.6708 44.1578 75.7599 43.1239V48.689H73.0879V33.0579H75.6385V34.5784C76.0653 34.0249 76.6311 33.5946 77.2781 33.3316C77.9627 33.0554 78.6961 32.9209 79.434 32.9362C80.4719 32.9208 81.4963 33.1721 82.4097 33.6661ZM81.5595 41.3905C81.8799 41.0437 82.1281 40.6366 82.2897 40.1928C82.4513 39.749 82.5231 39.2774 82.5008 38.8055C82.5254 38.3288 82.4549 37.8519 82.2933 37.4029C82.1316 36.9538 81.8822 36.5415 81.5595 36.1902C81.2419 35.8712 80.8626 35.6203 80.445 35.453C80.0273 35.2857 79.58 35.2054 79.1304 35.2171C78.5267 35.2094 77.931 35.3559 77.3996 35.6428C76.8851 35.9451 76.4565 36.3744 76.1547 36.8896C75.8506 37.481 75.7042 38.1409 75.7296 38.8055C75.708 39.4601 75.8544 40.1092 76.1547 40.691C76.4484 41.2125 76.8789 41.6437 77.3996 41.9378C77.9256 42.2386 78.5251 42.386 79.1304 42.3636C79.5807 42.3808 80.0296 42.303 80.4481 42.1354C80.8665 41.9677 81.2452 41.7139 81.5595 41.3905Z" fill="white"/>
<path d="M97.105 33.6658C97.9696 34.1523 98.684 34.8678 99.1697 35.7337C99.6836 36.6747 99.9451 37.7329 99.9288 38.8052C99.9371 39.8766 99.676 40.9329 99.1697 41.8767C98.684 42.7427 97.9696 43.4581 97.105 43.9447C96.1817 44.4412 95.1467 44.6924 94.0989 44.6745C92.5807 44.6745 91.3358 44.1575 90.4552 43.1236V48.6888H87.7832V33.0576H90.3338V34.5781C90.7606 34.0246 91.3264 33.5943 91.9734 33.3313C92.6481 33.0575 93.3711 32.923 94.0989 32.936C95.1467 32.918 96.1817 33.1693 97.105 33.6658ZM96.2548 41.3902C96.5751 41.0435 96.8234 40.6363 96.985 40.1925C97.1466 39.7487 97.2184 39.2771 97.1961 38.8052C97.2208 38.3285 97.1502 37.8517 96.9886 37.4026C96.827 36.9535 96.5775 36.5412 96.2548 36.1899C95.9371 35.8709 95.558 35.6201 95.1403 35.4527C94.7227 35.2854 94.2753 35.2051 93.8256 35.2168C93.2123 35.2092 92.6069 35.3556 92.0645 35.6425C91.5586 35.9457 91.1401 36.3753 90.85 36.8894C90.5367 37.4783 90.3798 38.1381 90.3945 38.8052C90.3823 39.4625 90.5392 40.1118 90.85 40.6907C91.1316 41.211 91.5521 41.6427 92.0645 41.9376C92.6018 42.2378 93.2108 42.385 93.8256 42.3633C94.276 42.3805 94.7249 42.3027 95.1434 42.1351C95.5618 41.9674 95.9405 41.7137 96.2548 41.3902Z" fill="white"/>
<path d="M109.918 44.2462C108.988 43.9867 108.121 43.5419 107.367 42.9385L108.339 40.7489C109.021 41.2682 109.779 41.6786 110.586 41.9654C111.456 42.2644 112.369 42.4185 113.288 42.4215C114.381 42.4215 115.231 42.2391 115.778 41.8741C116.026 41.7344 116.232 41.5312 116.376 41.2855C116.52 41.0398 116.597 40.7602 116.598 40.4752C116.606 40.275 116.57 40.0754 116.491 39.8912C116.412 39.7069 116.293 39.5428 116.142 39.4109C115.808 39.0946 115.401 38.8649 114.958 38.7418C114.33 38.5373 113.691 38.3647 113.045 38.2248C112.107 38.0144 111.183 37.7401 110.282 37.4037C109.574 37.1449 108.946 36.7045 108.46 36.1265C107.925 35.468 107.654 34.6329 107.701 33.7849C107.685 32.974 107.918 32.1777 108.369 31.504C108.878 30.7819 109.585 30.2222 110.404 29.8923C111.453 29.4642 112.58 29.2572 113.713 29.2841C114.624 29.2866 115.532 29.3989 116.416 29.6186C117.233 29.8294 118.012 30.1681 118.723 30.6221L117.843 32.7813C117.195 32.4003 116.501 32.1039 115.778 31.8994C115.105 31.7113 114.412 31.6091 113.713 31.5953C112.62 31.5953 111.8 31.7777 111.254 32.1731C111.005 32.3242 110.8 32.5391 110.661 32.7957C110.523 33.0522 110.455 33.3412 110.464 33.6328C110.458 33.8328 110.495 34.0317 110.574 34.2156C110.653 34.3995 110.771 34.5639 110.92 34.6972C111.257 34.9868 111.649 35.2041 112.074 35.3358L114.017 35.8832C114.945 36.0833 115.858 36.3474 116.75 36.6739C117.454 36.9412 118.08 37.3802 118.572 37.9511C119.108 38.5973 119.379 39.4234 119.331 40.2624C119.349 41.064 119.115 41.8511 118.663 42.5128C118.154 43.235 117.447 43.7946 116.628 44.1245C115.568 44.5525 114.431 44.7595 113.288 44.7328C112.147 44.7398 111.011 44.5758 109.918 44.2462Z" fill="white"/>
<path d="M128.713 43.8831C128.379 44.1642 127.983 44.3622 127.559 44.4609C127.108 44.6099 126.636 44.6819 126.162 44.6738C124.887 44.6738 123.915 44.3392 123.247 43.6702C122.549 43.0316 122.215 42.0584 122.215 40.8116V35.3072H120.332V33.148H122.215V30.5327H124.887V33.148H127.953V35.3072H124.887V40.7508C124.852 41.2112 124.993 41.6676 125.281 42.028C125.44 42.175 125.627 42.2884 125.83 42.3616C126.034 42.4347 126.25 42.4661 126.466 42.4538C127.008 42.4714 127.541 42.3112 127.984 41.9976L128.713 43.8831Z" fill="white"/>
<path d="M132.538 43.9118C131.633 43.4348 130.884 42.7061 130.382 41.8134C129.852 40.8999 129.579 39.8594 129.593 38.8028C129.575 37.7361 129.848 36.6847 130.382 35.7617C130.894 34.8844 131.641 34.168 132.538 33.6938C133.498 33.1754 134.575 32.9135 135.665 32.9335C136.766 32.9069 137.855 33.169 138.823 33.6938C139.736 34.1579 140.495 34.8759 141.01 35.7617C141.533 36.6877 141.796 37.7389 141.769 38.8028C141.792 39.8566 141.529 40.8969 141.01 41.8134C140.505 42.7149 139.744 43.4454 138.823 43.9118C137.855 44.4366 136.766 44.6987 135.665 44.6721C134.575 44.692 133.498 44.4302 132.538 43.9118ZM138.125 41.3877C138.449 41.0425 138.702 40.6363 138.869 40.1926C139.036 39.7489 139.113 39.2766 139.097 38.8028C139.116 38.3241 139.039 37.8465 138.873 37.3975C138.706 36.9486 138.452 36.5373 138.125 36.1874C137.803 35.8661 137.418 35.614 136.995 35.4467C136.572 35.2794 136.12 35.2003 135.665 35.2143C135.216 35.2027 134.768 35.283 134.351 35.4503C133.933 35.6176 133.554 35.8684 133.236 36.1874C132.914 36.5388 132.664 36.951 132.503 37.4001C132.341 37.8492 132.27 38.326 132.295 38.8028C132.273 39.2746 132.344 39.7462 132.506 40.19C132.668 40.6339 132.916 41.041 133.236 41.3877C133.551 41.7112 133.929 41.965 134.348 42.1326C134.766 42.3003 135.215 42.378 135.665 42.3608C136.121 42.3823 136.576 42.3067 137 42.1389C137.424 41.9712 137.807 41.7151 138.125 41.3877Z" fill="white"/>
<path d="M150.971 32.9351V35.4896L150.364 35.4287C149.311 35.4287 148.491 35.7329 147.904 36.3411C147.327 36.9493 147.024 37.8312 147.024 38.9564V44.5216H144.352V33.0567H146.902V34.7293C147.661 33.5433 149.028 32.9351 150.971 32.9351Z" fill="white"/>
<path d="M163.846 39.6574H154.858C155.002 40.4612 155.447 41.1795 156.103 41.6645C156.823 42.167 157.686 42.423 158.563 42.3943C159.141 42.4125 159.718 42.3112 160.256 42.0967C160.794 41.8822 161.282 41.5591 161.69 41.1475L163.117 42.7897C162.606 43.4222 161.935 43.9054 161.174 44.1886C160.325 44.5298 159.416 44.6953 158.502 44.6751C157.352 44.7047 156.214 44.4432 155.192 43.9149C154.257 43.4582 153.483 42.726 152.975 41.8165C152.445 40.903 152.172 39.8625 152.186 38.8059C152.182 37.7446 152.443 36.6991 152.945 35.7648C153.445 34.8886 154.182 34.1717 155.071 33.6968C155.996 33.1752 157.045 32.9126 158.107 32.9366C159.145 32.9184 160.17 33.1699 161.083 33.6664C161.955 34.156 162.671 34.8837 163.147 35.7648C163.651 36.7195 163.902 37.7874 163.876 38.8667C163.876 39.0491 163.876 39.2924 163.846 39.6574ZM155.921 35.856C155.326 36.3664 154.946 37.0835 154.858 37.8631H161.326C161.248 37.0871 160.879 36.3695 160.293 35.856C159.687 35.3346 158.906 35.0629 158.107 35.0957C157.31 35.0718 156.532 35.3424 155.921 35.856Z" fill="white"/>
</svg>
