<svg width="135" height="50" viewBox="0 0 135 50" fill="none" xmlns="http://www.w3.org/2000/svg">
<path d="M0 0L0.0449202 26.5779C2.98721 48.9521 22.7522 49.7657 22.7522 49.7657H134.739V0H0Z" fill="#003DD0"/>
<path d="M118.052 39.528C117.401 39.5506 115.739 39.5732 113.965 39.5732H113.628C112.078 39.5732 110.685 39.5506 110.012 39.528L113.762 17.2442L109.136 19.0522C108.844 18.7584 108.192 18.0578 107.653 17.086C107.339 16.521 107.182 15.9786 107.092 15.5492C107.047 15.3458 107.024 15.1876 107.002 15.0746L116.256 8.3171C116.256 8.3171 117.671 8.2041 119.759 8.2041C121.848 8.2041 123.353 8.3171 123.353 8.3171L118.052 39.528Z" fill="white"/>
<path d="M102.33 26.2391C102.307 26.6233 102.262 26.9397 102.217 27.1657H93.5701C92.8739 27.1431 92.1102 27.0075 91.7958 26.3747C91.7733 26.3295 91.7059 26.3295 91.6835 26.3973C91.3466 27.5951 92.1102 29.1997 93.1658 29.9229C94.0193 30.488 95.0076 30.7818 96.2878 30.7818C96.9841 30.7818 97.7253 30.714 98.4664 30.5784C99.2076 30.4428 99.9039 30.2393 100.578 29.9907C100.802 30.4202 101.004 30.9174 101.162 31.505C101.319 32.0926 101.431 32.7254 101.431 33.4034C99.8141 34.0362 97.9723 34.3526 95.9284 34.3526C94.4236 34.3526 93.1434 34.1492 92.0653 33.7198C90.9872 33.313 90.1112 32.7254 89.4374 31.9796C88.7636 31.2338 88.2695 30.3524 87.9326 29.3127C87.6182 28.2731 87.4609 27.1657 87.4609 25.9453C87.4609 24.7475 87.6182 23.6401 87.9551 22.5779C88.292 21.5157 88.7861 20.6116 89.4374 19.8432C90.0888 19.0748 90.8974 18.442 91.8631 17.99C92.8289 17.538 93.9519 17.312 95.2546 17.312C96.3776 17.312 97.3884 17.5154 98.2643 17.8996C99.1403 18.3064 99.8814 18.8488 100.51 19.5268C101.117 20.2274 101.588 21.0411 101.903 21.9903C102.217 22.9395 102.375 23.9565 102.375 25.0639C102.375 25.4481 102.375 25.8323 102.33 26.2391ZM95.2097 20.6795C94.1765 20.6795 93.368 20.9733 92.8289 21.5609C92.2899 22.1485 91.953 22.9847 91.8631 24.0469H98.1745C98.1295 23.0525 97.86 22.2389 97.3434 21.6061C96.8493 20.9733 96.1306 20.6795 95.2097 20.6795Z" fill="white"/>
<path d="M69.1109 29.1769C68.7964 30.1939 68.3247 31.098 67.6734 31.8664C67.0221 32.6348 66.2135 33.2224 65.2477 33.6518C64.2594 34.0812 63.114 34.2846 61.8113 34.2846C60.5086 34.2846 59.3631 34.0812 58.3973 33.6518C57.4315 33.2224 56.623 32.6348 55.9941 31.8664C55.3652 31.098 54.8711 30.1939 54.5566 29.1769C54.2197 28.1373 54.0625 27.0299 54.0625 25.8321C54.0625 24.6343 54.2197 23.5043 54.5566 22.4647C54.8711 21.4024 55.3652 20.4984 55.9941 19.73C56.623 18.9616 57.4315 18.374 58.3973 17.922C59.3631 17.4926 60.5086 17.2666 61.8113 17.2666C63.1364 17.2666 64.2819 17.4926 65.2477 17.922C66.2359 18.374 67.0445 18.9616 67.6734 19.73C68.3247 20.4984 68.7964 21.4024 69.1109 22.4647C69.4253 23.5043 69.5825 24.6343 69.5825 25.8321C69.5825 27.0299 69.4028 28.1373 69.1109 29.1769ZM61.7888 20.7696C60.6434 20.7696 59.8123 21.199 59.2957 22.0805C58.7792 22.9619 58.5321 24.2049 58.5321 25.8321C58.5321 27.4593 58.7792 28.7249 59.2957 29.5837C59.8123 30.4651 60.6434 30.8945 61.7888 30.8945C62.9568 30.8945 63.7878 30.4651 64.3044 29.5837C64.8209 28.7023 65.068 27.4593 65.068 25.8321C65.068 24.2049 64.8209 22.9393 64.3044 22.0805C63.7878 21.199 62.9568 20.7696 61.7888 20.7696Z" fill="white"/>
<path d="M85.5972 29.1769C85.2154 30.2617 84.6314 31.1657 83.8902 31.9342C83.149 32.68 82.2282 33.2676 81.1501 33.6744C80.072 34.0812 78.8367 34.2846 77.4666 34.2846C77.1072 34.2846 76.7703 34.262 76.411 34.2394C76.0741 34.2168 75.7821 34.1716 75.535 34.1264V39.5052C75.1532 39.573 71.4922 39.573 71.0879 39.5052V17.6056C71.3799 17.5378 74.0751 17.5152 74.6815 17.6282C74.7489 17.7412 74.7938 17.8768 74.8387 18.0802C74.8837 18.2836 74.951 18.487 74.996 18.713C75.0409 18.939 75.0858 19.165 75.1307 19.391C75.1532 19.617 75.1756 19.7978 75.1981 19.956C75.3778 19.617 75.6249 19.278 75.8944 18.9616C76.1639 18.6226 76.5008 18.3514 76.8826 18.1028C77.2645 17.8542 77.6912 17.6508 78.1853 17.4926C78.657 17.3344 79.196 17.2666 79.78 17.2666C80.6784 17.2666 81.5094 17.4248 82.2955 17.7638C83.0817 18.1028 83.7555 18.6 84.3394 19.3006C84.9234 19.9786 85.3726 20.8374 85.7095 21.8544C86.0239 22.8941 86.2036 24.0919 86.2036 25.5157C86.1812 26.8943 86.0015 28.1147 85.5972 29.1769ZM80.7907 22.3969C80.5436 22.0126 80.2292 21.6962 79.8474 21.4476C79.4656 21.2216 78.9939 21.1086 78.4324 21.1086C77.9158 21.1086 77.4666 21.199 77.1072 21.4024C76.7479 21.6058 76.4334 21.877 76.2088 22.2161C75.9842 22.5551 75.8045 22.9619 75.7147 23.4365C75.6024 23.8885 75.5575 24.3857 75.5575 24.9281V30.4651C76.119 30.6233 76.7703 30.7137 77.4891 30.7137C78.7917 30.7137 79.78 30.2843 80.4538 29.4481C81.1501 28.6119 81.487 27.3463 81.487 25.6513C81.487 24.9959 81.4421 24.4083 81.3298 23.8433C81.2175 23.2783 81.0378 22.8037 80.7907 22.3969Z" fill="white"/>
<path d="M53.8835 20.3177C53.861 20.7471 53.7936 21.1313 53.7038 21.5155C53.4792 21.4703 53.2097 21.4477 52.9402 21.4477H52.4236C52.0642 21.4477 51.6824 21.4929 51.2332 21.5607C50.784 21.6285 50.3797 21.8319 49.9754 22.1483C49.5936 22.4647 49.2567 22.9393 48.9872 23.5721C48.7176 24.2049 48.6053 25.0864 48.6053 26.2164V33.9456C48.2235 34.0134 44.5625 34.0134 44.1582 33.9456V17.6509C44.4726 17.5831 44.7646 17.5379 45.0566 17.5153C45.3261 17.4927 46.5839 17.4927 46.8984 17.5379C47.1903 17.5831 47.5048 17.6283 47.7968 17.6961C47.8641 17.8091 47.9091 17.9447 47.954 18.1481C47.9989 18.3515 48.0438 18.5549 48.1112 18.7809C48.1561 19.0069 48.1786 19.2329 48.2235 19.4363C48.246 19.6623 48.2909 19.8431 48.3133 20.0013C48.7625 19.3459 49.3241 18.7583 49.9979 18.2611C50.6717 17.7413 51.5027 17.4927 52.4909 17.4927C52.6931 17.4927 52.9402 17.5153 53.2097 17.5153C53.4792 17.5379 53.6813 17.5605 53.7936 17.6057C53.8386 17.8091 53.861 18.0577 53.8835 18.3289C53.9059 18.6001 53.9059 18.8939 53.9059 19.1651C53.9284 19.5267 53.9284 19.9109 53.8835 20.3177Z" fill="white"/>
<path d="M41.9781 33.923C41.3043 34.149 37.1042 34.3073 35.9138 34.3073C34.8582 34.3073 33.825 34.2169 32.8368 34.0587C31.8485 33.9004 30.995 33.5388 30.2538 32.9964C29.5126 32.454 28.9287 31.663 28.4795 30.6008C28.0303 29.5386 27.8281 28.16 27.8281 26.4198V17.6735C28.5693 17.5379 31.5116 17.5379 32.2753 17.6735V26.3068C32.2753 27.1656 32.3426 27.8662 32.4774 28.4312C32.6122 28.9962 32.8143 29.4256 33.1063 29.742C33.3983 30.0584 33.7352 30.307 34.1619 30.4426C34.5662 30.5782 35.0603 30.646 35.6218 30.646C36.3855 30.646 37.0368 30.5782 37.5534 30.42V17.6735C38.2946 17.5379 41.2144 17.5379 41.9556 17.6735V33.923H41.9781Z" fill="white"/>
<path d="M26.8179 33.9229C26.8179 33.9229 22.1238 33.9455 22.0115 33.9455C20.9109 33.9455 19.8553 33.7873 18.8446 33.6065C17.8339 33.4483 16.9579 33.064 16.1718 32.499C15.4081 31.934 14.8017 31.1204 14.3525 30.0356C13.9033 28.9508 13.7012 27.5044 13.7012 25.719V23.2781V11.3452H26.4586V15.2551H18.2606V20.1593H24.7741V24.0917H18.2606V25.6738C18.2606 26.5326 18.328 27.2332 18.4627 27.7756C18.5975 28.3406 18.8221 28.8152 19.0916 29.1316C19.3836 29.4706 19.743 29.6966 20.1697 29.8322C20.574 29.9678 21.0906 29.9904 21.6296 30.013H26.7955V33.9229H26.8179Z" fill="white"/>
</svg>
