<svg width="170" height="32" viewBox="0 0 170 32" fill="none" xmlns="http://www.w3.org/2000/svg">
<g clip-path="url(#clip0_54_565)">
<path d="M145.155 20.9311C145.155 24.1383 142.553 26.7376 139.342 26.7376C136.133 26.7376 133.529 24.1383 133.529 20.9311C133.529 17.7238 136.133 15.1245 139.342 15.1245C142.553 15.1245 145.155 17.7238 145.155 20.9311Z" fill="#EB0031"/>
<path fill-rule="evenodd" clip-rule="evenodd" d="M163.854 9.55241C163.854 11.1073 163.166 12.8401 160.69 15.5503L149.412 27.1267V31.5H170.685V26.1688H158.62L165.917 18.4827C168.072 16.0835 169.962 13.2844 169.962 9.55241C169.962 3.90982 165.275 0 159.682 0C154.568 0 149.561 3.55612 149.777 10.1147H155.554C155.554 9.49324 155.585 8.9422 155.71 8.45595C156.29 6.189 158.109 5.33154 159.682 5.33154C162.112 5.33154 163.854 7.37536 163.854 9.55241Z" fill="#232323"/>
<path d="M61.0293 31.5614V10.3007H66.5153V12.0107C68.1381 10.6958 70.1565 9.86279 72.5265 9.86279C75.4667 9.86279 78.1432 11.1788 79.899 13.2816C81.3032 14.9477 82.0921 17.0956 82.0921 20.734V31.5614H76.3874V20.2961C76.3874 18.1921 75.9051 17.0956 75.1162 16.3065C74.369 15.5613 73.2286 15.1222 71.9123 15.1222C69.4983 15.1222 67.5239 16.6577 66.7339 17.7531V31.5614H61.0293Z" fill="#232323"/>
<path d="M122.304 18.192C122.128 16.3075 120.417 14.4658 118.091 14.4658C115.721 14.4658 113.791 16.2636 113.527 18.192H122.304ZM127.614 28.1862C125.55 30.6415 122.172 32.0002 118.881 32.0002C112.518 32.0002 107.734 27.6166 107.734 20.9534C107.734 15.0354 111.772 9.86377 118.091 9.86377C123.97 9.86377 128.14 14.8159 128.14 20.7339C128.14 21.3046 128.096 21.8742 128.008 22.356H113.264C113.571 25.337 115.985 27.3971 119.013 27.3971C121.426 27.3971 123.357 26.0383 124.366 24.943L127.614 28.1862Z" fill="#232323"/>
<path d="M50.6834 17.7536C49.4979 16.1753 47.6114 15.1238 45.4172 15.1238C42.0825 15.1238 39.9312 17.8853 39.9312 20.9529C39.9312 24.2851 42.3463 26.7392 45.5491 26.7392C47.6993 26.7392 49.5858 25.6877 50.6834 24.1095V17.7536ZM56.3881 31.5618H50.9032V29.8519C49.1474 31.3424 47.129 31.9998 44.9788 31.9998C41.8188 31.9998 38.8347 30.5971 36.9482 28.4053C35.2803 26.4769 34.2266 23.8472 34.2266 20.9529C34.2266 14.6848 38.8786 9.86328 44.6723 9.86328C47.0851 9.86328 49.2353 10.6513 50.9032 12.0112V10.3012H56.3881V31.5618Z" fill="#232323"/>
<path d="M106.428 27.2217C103.927 30.5527 100.767 31.9993 96.7745 31.9993C90.192 31.9993 85.3652 27.09 85.3652 20.9536C85.3652 14.7722 90.3227 9.86279 96.8185 9.86279C100.504 9.86279 103.795 11.5728 105.77 14.1147L101.732 17.6653C100.591 16.1748 98.8808 15.1222 96.8185 15.1222C93.5266 15.1222 91.0699 17.7092 91.0699 20.9536C91.0699 24.2846 93.4827 26.7387 96.9492 26.7387C99.2752 26.7387 101.119 25.3372 102.04 23.9345L106.428 27.2217Z" fill="#232323"/>
<path d="M33.3496 15.3423C32.9552 15.2105 32.1212 15.1227 31.2873 15.1227C28.7866 15.1227 26.811 16.9205 26.1089 18.1915V31.5619H20.4043V10.3012H25.8903V12.4491C27.1626 10.8708 29.4886 9.86328 32.0773 9.86328C32.9112 9.86328 33.3935 9.95008 34.0077 10.0388L33.3496 15.3423Z" fill="#232323"/>
<path d="M16.8941 5.26059C16.4118 5.1288 15.7097 5.04104 15.1823 5.04104C13.7781 5.04104 12.6816 5.43615 11.9795 6.26921C11.4961 6.88161 11.1895 7.67189 11.1895 9.64419V10.3016H17.7721V15.1232H11.1895V31.5612H5.48489V15.1232H0V10.3016H5.48489V9.42464C5.48489 6.00579 6.27487 3.94571 7.76695 2.49799C9.25904 1.05256 11.496 0 14.3923 0C15.5339 0 16.5876 0.0877461 17.7721 0.39511L16.8941 5.26059Z" fill="#232323"/>
</g>
<defs>
<clipPath id="clip0_54_565">
<rect width="170" height="32" fill="white"/>
</clipPath>
</defs>
</svg>
