<svg width="102" height="103" viewBox="0 0 102 103" fill="none" xmlns="http://www.w3.org/2000/svg">
<path opacity="0.15" d="M36.8852 10.9692C22.0657 18.5002 8.51971 38.3123 8.51971 56.039C8.49528 64.7889 10.9779 73.3623 15.6735 80.7435C20.369 88.1247 27.0806 94.0041 35.0129 97.685C42.9452 101.366 51.7658 102.694 60.4293 101.512C69.0928 100.33 77.2361 96.6878 83.8943 91.0162C90.5525 85.3447 95.4464 77.882 97.9962 69.5123C100.546 61.1427 100.645 52.2169 98.2804 43.7929C95.9163 35.3689 91.1886 27.7996 84.6574 21.9821C78.1262 16.1645 70.0653 12.3427 61.43 10.9692" fill="#3D4E60"/>
<path d="M25.5368 53.2588C25.5368 53.2588 13.6117 55.8077 8.98063 48.9719C4.34953 42.1361 3.30753 22.4399 14.1906 13.9821C25.0737 5.52425 31.2099 2.04847 54.2496 1.12158C51.5868 4.71326 49.2712 6.56705 49.9659 10.2746C50.6605 13.9821 51.9341 36.8067 38.967 46.7707C30.8626 52.7954 25.5368 53.2588 25.5368 53.2588Z" fill="#D84D5D" stroke="#2A3541" stroke-width="2.07121" stroke-miterlimit="10"/>
<path d="M37.6952 10.9695C22.8757 18.5004 9.44549 38.3126 9.44549 56.0393C9.42106 64.7892 11.9037 73.3626 16.5992 80.7438C21.2948 88.125 28.0064 94.0043 35.9387 97.6853C43.871 101.366 52.6915 102.695 61.355 101.513C70.0186 100.331 78.1619 96.688 84.8201 91.0165C91.4783 85.345 96.3722 77.8822 98.9219 69.5126C101.472 61.143 101.57 52.2172 99.2062 43.7932C96.8421 35.3691 92.1143 27.7999 85.5831 21.9823C79.0519 16.1648 70.9911 12.343 62.3558 10.9695C62.3558 10.9695 52.9779 9.46327 50.1992 11.2012" stroke="#2A3541" stroke-width="1.82011" stroke-miterlimit="10"/>
<path d="M77.0602 25.9185H65.5983C65.5983 25.9185 61.5461 31.3638 61.7776 34.2604C62.0092 37.1569 73.8185 36.4617 73.4711 41.4437L73.1238 46.3099L60.6198 45.6147L55.0625 53.725L60.8514 65.4269L66.0614 66.2378L75.4394 83.3852C75.4394 83.3852 79.0284 84.1963 79.9547 83.3852C80.8809 82.5742 83.0807 79.2142 82.6176 76.6653C82.1545 74.1163 84.2384 70.7564 86.3224 68.3234C88.4064 65.8903 92.2271 61.8352 89.9115 60.2131C87.596 58.5911 85.0489 55.1152 85.0489 52.798C84.9826 51.6485 85.1807 50.499 85.6278 49.4381L93.3849 50.365" stroke="#2A3541" stroke-width="2" stroke-miterlimit="10"/>
<path opacity="0.15" d="M77.0602 25.9185H65.5983C65.5983 25.9185 61.5461 31.3638 61.7776 34.2604C62.0092 37.1569 73.8185 36.4616 73.4711 41.4437L73.1238 46.3099L60.6198 45.6147L55.0625 53.725L60.8514 65.4269L66.0614 66.2378L75.4394 83.3852C75.4394 83.3852 79.0284 84.1963 79.9547 83.3852C80.8809 82.5742 83.0807 79.2142 82.6176 76.6653C82.1545 74.1163 84.2384 70.7564 86.3224 68.3234C88.4064 65.8903 92.2271 61.8352 89.9115 60.2131C87.596 58.5911 85.0489 55.1152 85.0489 52.798C84.9826 51.6485 85.1807 50.499 85.6278 49.4381L93.3849 50.365" fill="#3D4E60"/>
<path d="M66.6399 91.7271L62.3561 94.9712C61.1214 93.9188 59.6794 93.1378 58.1237 92.6787C56.568 92.2197 54.9333 92.0928 53.3255 92.3064C48.1155 93.2332 44.7579 97.4043 46.6104 101.807" stroke="#2A3541" stroke-width="2" stroke-miterlimit="10"/>
<path opacity="0.15" d="M46.2621 102.153C44.2939 97.7499 47.7673 93.5789 52.8615 92.6521C54.4693 92.4384 56.104 92.5652 57.6597 93.0243C59.2154 93.4834 60.6573 94.2644 61.8921 95.3168L66.9863 92.6521L70.1123 99.256" fill="#3D4E60"/>
<path d="M21.4868 71.914C21.4868 71.914 16.3925 60.2121 29.5912 53.0287C33.5721 50.8614 37.2999 48.258 40.7058 45.2661C40.7058 45.2661 48.926 66.8162 41.5163 75.8533C34.1065 84.8904 22.413 87.4394 22.413 87.4394C22.413 87.4394 -2.47918 88.4821 1.45726 60.2121C7.47769 65.4259 11.4141 62.9927 19.1712 69.7127C26.9283 76.4326 24.0338 80.9512 23.6865 85.7015" fill="#D84D5D"/>
<path d="M21.4868 71.914C21.4868 71.914 16.3925 60.2121 29.5912 53.0287C33.5721 50.8614 37.2999 48.258 40.7058 45.2661C40.7058 45.2661 48.926 66.8162 41.5163 75.8533C34.1065 84.8904 22.413 87.4394 22.413 87.4394C22.413 87.4394 -2.47918 88.4821 1.45726 60.2121C7.47769 65.4259 11.4141 62.9927 19.1712 69.7127C26.9283 76.4326 24.0339 80.9512 23.6865 85.7015" stroke="#2A3541" stroke-width="2.07121" stroke-miterlimit="10"/>
<path d="M10.1406 72.6102L21.7184 86.166L26.0021 84.6597C26.0021 84.6597 36.4221 73.653 36.5379 62.4146" stroke="#2A3541" stroke-width="2" stroke-miterlimit="10"/>
</svg>
