<svg width="185" height="55" viewBox="0 0 185 55" fill="none" xmlns="http://www.w3.org/2000/svg">
<path d="M177.235 0H6.80156C3.04516 0 0 3.04985 0 6.81203V47.7997C0 51.5619 3.04516 54.6118 6.80156 54.6118H177.235C180.992 54.6118 184.037 51.5619 184.037 47.7997V6.81203C184.037 3.04985 180.992 0 177.235 0Z" fill="black"/>
<path d="M64.6457 13.9882C64.6678 14.4906 64.5877 14.9924 64.4102 15.4629C64.2328 15.9334 63.9616 16.3628 63.6133 16.7251C63.2292 17.1327 62.7618 17.4523 62.243 17.6623C61.7242 17.8722 61.1662 17.9675 60.6072 17.9416C60.0477 17.9502 59.4924 17.8441 58.9754 17.6297C58.4584 17.4152 57.9908 17.097 57.6012 16.6947C57.1972 16.3 56.8783 15.8264 56.6642 15.3034C56.45 14.7803 56.3452 14.2189 56.3563 13.6537C56.3452 13.0885 56.45 12.527 56.6642 12.0039C56.8783 11.4809 57.1972 11.0073 57.6012 10.6126C57.9908 10.2103 58.4584 9.89208 58.9754 9.67765C59.4924 9.46321 60.0477 9.35706 60.6072 9.36573C61.1838 9.36375 61.7539 9.48831 62.2773 9.73065C62.7831 9.91809 63.2326 10.2322 63.5829 10.643L62.8542 11.3728C62.581 11.0468 62.2356 10.7891 61.8456 10.6202C61.4555 10.4513 61.0315 10.3758 60.6072 10.3997C59.7817 10.3922 58.986 10.7087 58.3907 11.2816C58.0747 11.5875 57.8274 11.9572 57.6651 12.3662C57.5028 12.7751 57.4293 13.214 57.4494 13.6537C57.4293 14.0933 57.5028 14.5322 57.6651 14.9411C57.8274 15.3501 58.0747 15.7198 58.3907 16.0257C58.679 16.3204 59.0242 16.5533 59.4053 16.7101C59.7864 16.867 60.1953 16.9445 60.6072 16.938C61.0288 16.9493 61.4483 16.8741 61.8399 16.7173C62.2315 16.5604 62.587 16.325 62.8845 16.0257C63.3067 15.5679 63.5541 14.9756 63.5829 14.3531H60.6072V13.38H64.585C64.6188 13.5811 64.639 13.7843 64.6457 13.9882Z" fill="white" stroke="white" stroke-width="0.897886" stroke-miterlimit="10"/>
<path d="M70.9 10.5823H67.1956V13.1672H70.5356V14.1404H67.1956V16.7557H70.9V17.7593H66.1328V9.54834H70.9V10.5823Z" fill="white" stroke="white" stroke-width="0.897886" stroke-miterlimit="10"/>
<path d="M75.3331 17.7593H74.3007V10.5823H72.0234V9.54834H77.6408V10.5823H75.3331V17.7593Z" fill="white" stroke="white" stroke-width="0.897886" stroke-miterlimit="10"/>
<path d="M81.709 17.7593V9.54834H82.7414V17.7593H81.709Z" fill="white" stroke="white" stroke-width="0.897886" stroke-miterlimit="10"/>
<path d="M87.4182 17.7593H86.3554V10.5823H84.0781V9.54834H89.6955V10.5823H87.4182V17.7593Z" fill="white" stroke="white" stroke-width="0.897886" stroke-miterlimit="10"/>
<path d="M100.325 16.6955C99.9435 17.1 99.4816 17.4199 98.9691 17.6346C98.4566 17.8494 97.9048 17.9542 97.3494 17.9424C96.7891 17.9566 96.2321 17.853 95.7144 17.6382C95.1966 17.4234 94.7295 17.1023 94.3433 16.6955C93.9433 16.2992 93.6291 15.8247 93.4201 15.3016C93.2112 14.7784 93.112 14.2177 93.1288 13.6544C93.1138 13.0914 93.2138 12.5313 93.4227 12.0084C93.6315 11.4854 93.9448 11.0107 94.3433 10.6134C94.7295 10.2066 95.1966 9.88547 95.7144 9.6707C96.2321 9.45594 96.7891 9.35231 97.3494 9.36652C97.9048 9.3547 98.4566 9.45954 98.9691 9.67429C99.4816 9.88904 99.9435 10.2089 100.325 10.6134C100.721 11.0128 101.032 11.4879 101.241 12.0103C101.449 12.5328 101.551 13.0919 101.54 13.6544C101.556 14.2177 101.457 14.7784 101.248 15.3016C101.039 15.8247 100.725 16.2992 100.325 16.6955ZM95.1024 15.9961C95.3894 16.3031 95.7379 16.5458 96.1252 16.7083C96.5124 16.8708 96.9296 16.9493 97.3494 16.9388C97.764 16.945 98.1754 16.8644 98.5571 16.7021C98.9389 16.5397 99.2825 16.2992 99.566 15.9961C99.868 15.6878 100.105 15.3213 100.261 14.9188C100.418 14.5163 100.491 14.0862 100.477 13.6544C100.491 13.2227 100.418 12.7926 100.261 12.3901C100.105 11.9876 99.868 11.6211 99.566 11.3128C99.2776 11.0181 98.9324 10.7852 98.5513 10.6284C98.1703 10.4715 97.7613 10.394 97.3494 10.4005C96.9326 10.3916 96.5184 10.468 96.132 10.6248C95.7457 10.7817 95.3954 11.0158 95.1024 11.3128C94.8044 11.6226 94.5725 11.9901 94.4211 12.3927C94.2697 12.7953 94.2019 13.2247 94.2219 13.6544C94.2019 14.0842 94.2697 14.5136 94.4211 14.9162C94.5725 15.3188 94.8044 15.6863 95.1024 15.9961Z" fill="white" stroke="white" stroke-width="0.897886" stroke-miterlimit="10"/>
<path d="M103.027 17.7593V9.54834H104.303L108.28 15.9346H108.311V9.54834H109.343V17.7593H108.25L104.09 11.0689H104.06V17.7593H103.027Z" fill="white" stroke="white" stroke-width="0.897886" stroke-miterlimit="10"/>
<path d="M92.8847 29.7118C92.1172 29.6954 91.3542 29.8341 90.6415 30.1198C89.9288 30.4055 89.2809 30.8322 88.7366 31.3745C88.1923 31.9168 87.7629 32.5634 87.4739 33.2758C87.1849 33.9881 87.0424 34.7515 87.0549 35.5203C87.0466 36.2879 87.1921 37.0494 87.4825 37.7598C87.773 38.4703 88.2026 39.1152 88.746 39.6566C89.2894 40.198 89.9356 40.6249 90.6464 40.9121C91.3573 41.1993 92.1183 41.341 92.8847 41.3287C93.6497 41.3411 94.4094 41.1993 95.1186 40.9117C95.8278 40.6242 96.4721 40.1968 97.0131 39.6549C97.5541 39.1131 97.9808 38.4679 98.2679 37.7576C98.555 37.0473 98.6966 36.2865 98.6843 35.5203C98.6966 34.7541 98.555 33.9933 98.2679 33.283C97.9808 32.5727 97.5541 31.9275 97.0131 31.3856C96.4721 30.8438 95.8278 30.4164 95.1186 30.1288C94.4094 29.8413 93.6497 29.6995 92.8847 29.7118ZM92.8847 39.0175C91.1236 39.0175 89.6054 37.5882 89.6054 35.5203C89.6054 33.4523 91.1236 31.9926 92.8847 31.9926C94.6459 31.9926 96.1337 33.4219 96.1337 35.5203C96.1337 37.6186 94.6155 39.0175 92.8847 39.0175ZM80.1925 29.7118C79.425 29.6954 78.6621 29.8341 77.9493 30.1198C77.2366 30.4055 76.5887 30.8322 76.0444 31.3745C75.5001 31.9168 75.0707 32.5634 74.7817 33.2758C74.4927 33.9881 74.3502 34.7515 74.3626 35.5203C74.3544 36.2879 74.4998 37.0494 74.7903 37.7598C75.0808 38.4703 75.5104 39.1152 76.0538 39.6566C76.5972 40.198 77.2434 40.6249 77.9542 40.9121C78.6651 41.1993 79.4261 41.341 80.1925 41.3287C80.9575 41.3411 81.7172 41.1993 82.4264 40.9117C83.1356 40.6242 83.7799 40.1968 84.3209 39.6549C84.8619 39.1131 85.2886 38.4679 85.5757 37.7576C85.8628 37.0473 86.0044 36.2865 85.9921 35.5203C86.0044 34.7541 85.8628 33.9933 85.5757 33.283C85.2886 32.5727 84.8619 31.9275 84.3209 31.3856C83.7799 30.8438 83.1356 30.4164 82.4264 30.1288C81.7172 29.8413 80.9575 29.6995 80.1925 29.7118ZM80.1925 39.0175C78.4314 39.0175 76.9132 37.5882 76.9132 35.5203C76.9132 33.4523 78.4314 31.9926 80.1925 31.9926C81.9537 31.9926 83.4415 33.4219 83.4415 35.5203C83.4415 37.6186 81.9233 39.0175 80.1925 39.0175ZM65.0712 31.4756V33.9389H70.9619C70.7797 35.3378 70.3242 36.3414 69.6258 37.0408C68.9275 37.7403 67.4396 38.8655 65.0712 38.8655C64.2153 38.8615 63.3687 38.6882 62.5798 38.3556C61.791 38.0229 61.0755 37.5375 60.4745 36.9271C59.8736 36.3168 59.3989 35.5935 59.0779 34.7989C58.7568 34.0042 58.5957 33.1539 58.6037 32.2967C58.5956 31.441 58.757 30.5921 59.0784 29.7992C59.3999 29.0063 59.875 28.285 60.4764 27.6771C61.0777 27.0691 61.7934 26.5866 62.5821 26.2572C63.3708 25.9279 64.2168 25.7584 65.0712 25.7584C66.7193 25.7286 68.3124 26.3516 69.5044 27.4918L71.2351 25.7584C70.4241 24.9563 69.4608 24.325 68.4021 23.902C67.3434 23.4789 66.2108 23.2725 65.0712 23.2951C60.1219 23.2951 55.9316 27.3398 55.9316 32.2967C55.9316 37.2537 60.1219 41.3287 65.0712 41.3287C67.7433 41.3287 69.7777 40.4468 71.3566 38.7742C72.9355 37.1016 73.4821 34.8817 73.4821 33.0266C73.4918 32.5069 73.4511 31.9875 73.3606 31.4756H65.0712ZM126.832 33.3915C126.346 32.1143 124.889 29.7118 121.882 29.7118C118.876 29.7118 116.417 32.0534 116.417 35.5203C116.401 36.2824 116.537 37.04 116.819 37.7481C117.101 38.4563 117.522 39.1004 118.058 39.6422C118.593 40.1841 119.232 40.6126 119.936 40.9023C120.64 41.1921 121.395 41.3371 122.156 41.3287C123.112 41.3347 124.054 41.1014 124.897 40.65C125.74 40.1986 126.458 39.5434 126.984 38.7438L125.01 37.4362C124.342 38.3789 123.461 39.0175 122.156 39.0175C121.569 39.0477 120.988 38.8979 120.488 38.5882C119.989 38.2784 119.596 37.8235 119.362 37.2841L127.105 34.0606L126.832 33.3915ZM118.937 35.3378C118.908 34.915 118.965 34.4907 119.103 34.0901C119.241 33.6895 119.458 33.3208 119.742 33.006C120.025 32.6911 120.368 32.4364 120.752 32.2571C121.135 32.0778 121.551 31.9775 121.974 31.9622C122.976 31.9622 123.826 32.4488 124.129 33.1786L118.937 35.3378ZM112.621 40.9638H115.172V23.9033H112.621V40.9638ZM108.462 30.9891H108.37C107.978 30.5721 107.502 30.2429 106.973 30.0228C106.445 29.8027 105.876 29.6967 105.304 29.7118C102.419 29.7118 99.747 32.2663 99.747 35.5203C99.747 38.7742 102.419 41.3287 105.304 41.3287C105.881 41.3401 106.454 41.2264 106.983 40.9955C107.512 40.7645 107.986 40.4218 108.37 39.9907H108.462V40.8422C108.462 43.0622 107.277 44.2482 105.364 44.2482C103.451 44.2482 102.844 43.123 102.449 42.1803L100.233 43.0926C100.646 44.1141 101.356 44.9878 102.271 45.6005C103.186 46.2132 104.264 46.5367 105.364 46.529C108.34 46.529 110.86 44.7652 110.86 40.4772V30.0463H108.462V30.9891ZM105.547 39.0175C103.785 39.0175 102.298 37.5578 102.298 35.5203C102.298 33.4828 103.785 31.9926 105.547 31.9926C107.308 31.9926 108.644 33.4828 108.644 35.5203C108.644 37.5578 107.277 39.0175 105.547 39.0175ZM138.765 23.9033H132.662V40.9638H135.212V34.4863H138.765C141.589 34.4863 144.352 32.4488 144.352 29.1948C144.352 25.9409 141.589 23.9033 138.765 23.9033ZM138.826 32.1143H135.212V26.2754H138.826C139.61 26.2672 140.365 26.5693 140.928 27.116C141.491 27.6626 141.816 28.4097 141.832 29.1948C141.816 29.9799 141.491 30.727 140.928 31.2737C140.365 31.8204 139.61 32.1224 138.826 32.1143ZM154.554 29.6814C152.702 29.6814 150.819 30.4721 150.03 32.2967L152.277 33.2395C152.763 32.2967 153.643 31.9926 154.615 31.9926C155.587 31.9926 157.257 32.7833 157.287 34.1822V34.3343C156.456 33.9208 155.543 33.7024 154.615 33.6956C152.186 33.6956 149.726 35.0337 149.726 37.5274C149.726 40.0211 151.7 41.2983 153.947 41.2983C154.587 41.3275 155.224 41.1885 155.794 40.8951C156.364 40.6017 156.847 40.1641 157.196 39.6257H157.287V40.9334H159.716V34.3951C159.716 31.354 157.469 29.6814 154.554 29.6814ZM154.251 39.0175C153.431 39.0175 152.247 38.6222 152.247 37.5882C152.247 36.5542 153.704 35.7636 154.949 35.7636C155.762 35.7498 156.565 35.9379 157.287 36.311C157.186 37.0504 156.824 37.7294 156.268 38.2257C155.711 38.7219 154.996 39.0027 154.251 39.0175ZM168.674 30.0463L165.759 37.4362H165.668L162.661 30.0463H159.898L164.453 40.386L161.872 46.1337H164.514L171.497 30.0463H168.674ZM145.779 40.9638H148.299V23.9033H145.779V40.9638Z" fill="white"/>
<path d="M14.2097 10.3101C13.7555 10.8408 13.5266 11.5285 13.5721 12.226V42.424C13.5391 43.1198 13.7664 43.803 14.2097 44.3398L14.3312 44.4311L31.2136 27.5226V27.1273L14.3312 10.1885L14.2097 10.3101Z" fill="url(#paint0_linear_54_668)"/>
<path d="M36.8322 33.148L31.2148 27.522V27.1266L36.8322 21.4702L36.9537 21.5614L43.6338 25.3324C45.5467 26.4272 45.5467 28.191 43.6338 29.2858L36.9537 33.0872L36.8322 33.148Z" fill="url(#paint1_linear_54_668)"/>
<path d="M36.9537 33.0886L31.2148 27.3105L14.2109 44.3406C14.8486 45.0096 15.8809 45.0705 17.0348 44.4014L36.9537 33.0886Z" fill="url(#paint2_linear_54_668)"/>
<path d="M36.9537 21.5625L17.0348 10.2192C15.8809 9.55019 14.8486 9.64142 14.2109 10.3105L31.2148 27.3101L36.9537 21.5625Z" fill="url(#paint3_linear_54_668)"/>
<path opacity="0.2" d="M36.8322 32.9639L17.0348 44.2159C15.9417 44.8545 14.9397 44.7937 14.3324 44.2159L14.2109 44.3375L14.3324 44.4288C14.9397 45.0066 15.9417 45.037 17.0348 44.3983L36.9537 33.0855L36.8322 32.9639Z" fill="black"/>
<path opacity="0.12" d="M14.2103 44.1258C13.7617 43.592 13.5336 42.9066 13.5727 42.21V42.4228C13.5396 43.1187 13.767 43.8019 14.2103 44.3387L14.3318 44.2171L14.2103 44.1258Z" fill="black"/>
<path opacity="0.12" d="M43.6336 29.0744L36.832 32.967L36.9535 33.0886L43.6336 29.2873C44.5749 28.7399 45.0607 28.0404 45.0607 27.3105C44.9696 27.9492 44.4838 28.5878 43.6336 29.0744Z" fill="black"/>
<path opacity="0.25" d="M17.0337 10.4008L43.6327 25.5454C44.4829 26.0319 44.9687 26.6706 45.0598 27.3092C45.0598 26.6097 44.574 25.8799 43.6327 25.3325L17.0337 10.2183C15.1512 9.1235 13.5723 10.0358 13.5723 12.2254V12.4079C13.5723 10.2183 15.1512 9.33638 17.0337 10.4008Z" fill="white"/>
<defs>
<linearGradient id="paint0_linear_54_668" x1="29.7076" y1="11.8976" x2="6.79606" y2="34.7769" gradientUnits="userSpaceOnUse">
<stop stop-color="#009FFF"/>
<stop offset="0.01" stop-color="#00A0FF"/>
<stop offset="0.26" stop-color="#00BDFF"/>
<stop offset="0.51" stop-color="#00D1FF"/>
<stop offset="0.76" stop-color="#00DEFF"/>
<stop offset="1" stop-color="#00E2FF"/>
</linearGradient>
<linearGradient id="paint1_linear_54_668" x1="46.1145" y1="27.3152" x2="13.13" y2="27.3152" gradientUnits="userSpaceOnUse">
<stop stop-color="#FFDF00"/>
<stop offset="0.41" stop-color="#FFBC00"/>
<stop offset="0.78" stop-color="#FFA400"/>
<stop offset="1" stop-color="#FF9B00"/>
</linearGradient>
<linearGradient id="paint2_linear_54_668" x1="33.8353" y1="30.4489" x2="2.76456" y2="61.4719" gradientUnits="userSpaceOnUse">
<stop stop-color="#FF3A44"/>
<stop offset="1" stop-color="#C21162"/>
</linearGradient>
<linearGradient id="paint3_linear_54_668" x1="9.93871" y1="0.247521" x2="23.8151" y2="14.1027" gradientUnits="userSpaceOnUse">
<stop stop-color="#329F71"/>
<stop offset="0.07" stop-color="#2DA671"/>
<stop offset="0.48" stop-color="#15CE74"/>
<stop offset="0.8" stop-color="#06E675"/>
<stop offset="1" stop-color="#00EF76"/>
</linearGradient>
</defs>
</svg>
