<svg width="104" height="38" viewBox="0 0 104 38" fill="none" xmlns="http://www.w3.org/2000/svg">
<g clip-path="url(#clip0_54_564)">
<path fill-rule="evenodd" clip-rule="evenodd" d="M0 38V0H104V38H0Z" fill="url(#paint0_linear_54_564)"/>
<path d="M0 23.9452V0H104V10.7233C104 10.7233 94.7667 10.4422 89.8049 10.4422C61.548 10.4422 27.496 15.9538 0 23.9452Z" fill="url(#paint1_linear_54_564)"/>
<path d="M25.7913 32.378H14.1433V14.9917H8.11133V5.83008H31.8233V14.9917H25.7913V32.378Z" fill="white"/>
<path d="M46.0723 32.378V5.83008H67.7043V12.4931H57.7203V17.2821H64.8963V23.9451H57.7203V32.378H46.0723Z" fill="white"/>
<path d="M81.4316 32.3782V9.05769L93.4956 5.62207V32.3782H81.4316Z" fill="white"/>
</g>
<defs>
<linearGradient id="paint0_linear_54_564" x1="0" y1="38" x2="104" y2="38" gradientUnits="userSpaceOnUse">
<stop stop-color="#01168B"/>
<stop offset="0.1" stop-color="#001B9C"/>
<stop offset="0.2" stop-color="#021D9E"/>
<stop offset="0.3" stop-color="#06198F"/>
<stop offset="0.404297" stop-color="#31127A"/>
<stop offset="0.5" stop-color="#500B64"/>
<stop offset="0.59783" stop-color="#77054D"/>
<stop offset="0.7" stop-color="#960234"/>
<stop offset="0.8" stop-color="#BB0221"/>
<stop offset="0.9" stop-color="#B00005"/>
<stop offset="1" stop-color="#9A0003"/>
</linearGradient>
<linearGradient id="paint1_linear_54_564" x1="-6.24e-06" y1="0.298595" x2="104" y2="0.298595" gradientUnits="userSpaceOnUse">
<stop stop-color="#0F30B3" stop-opacity="0.468468"/>
<stop offset="0.1" stop-color="#1C45CF" stop-opacity="0.657658"/>
<stop offset="0.2" stop-color="#2B53D7"/>
<stop offset="0.3" stop-color="#3757C6"/>
<stop offset="0.404297" stop-color="#665CB2"/>
<stop offset="0.5" stop-color="#87539B"/>
<stop offset="0.59783" stop-color="#A44080"/>
<stop offset="0.7" stop-color="#B4325E"/>
<stop offset="0.8" stop-color="#C42038"/>
<stop offset="0.9" stop-color="#BD1016"/>
<stop offset="1" stop-color="#99060C"/>
</linearGradient>
<clipPath id="clip0_54_564">
<rect width="104" height="38" fill="white"/>
</clipPath>
</defs>
</svg>
