<svg width="120" height="26" viewBox="0 0 120 26" fill="none" xmlns="http://www.w3.org/2000/svg">
<path d="M8.28395 19.7674V14.9217H13.4878C15.4543 14.9217 16.3822 15.7657 16.3822 17.2805C16.3552 19.28 14.8687 19.7674 13.1164 19.7674H8.28395ZM8.25773 6.17911H12.6386C14.3378 6.17911 15.4528 6.64047 15.4528 7.94788C15.4528 9.61468 14.364 10.1014 12.6386 10.1014H8.25773V6.17911ZM111.383 0L107.056 15.7164H106.976L102.568 0H63.5375L59.6876 15.2551H59.6082L55.7845 0H24.1075V15.2551C23.7417 14.3857 23.1803 13.6058 22.4639 12.9717C21.7476 12.3376 20.8942 11.8653 19.9655 11.5888C21.9568 10.5374 23.2845 9.1273 23.2845 6.51247C23.2852 3.84559 21.7718 0 14.7121 0H0V25.9465H15.2402C19.0639 25.9465 22.8075 24.1517 24.1082 20.7421V25.9465H32.3929V16.0498H39.9602V10.1014H32.3929V6.17911H44.0221V25.9465H51.8567V9.30664H51.936L56.609 25.9465H62.7669L67.4428 9.30664H67.5222V25.9465H75.3524V6.64047H81.9138V25.9465H90.1949V6.64047H96.2749L102.222 25.9465H111.489L119.879 0H111.383Z" fill="#004278"/>
</svg>
