<svg width="71" height="71" viewBox="0 0 71 71" fill="none"
                                    xmlns="http://www.w3.org/2000/svg">
                                    <g clip-path="url(#clip0_2018_460)">
                                        <path
                                            d="M33.9441 54.1133H44.0918V68.6428H29.5967V58.4492C29.5997 57.2982 30.0591 56.1954 30.874 55.3826C31.689 54.5697 32.7931 54.1133 33.9441 54.1133Z"
                                            fill="#D84D5D" />
                                        <path d="M69.8554 69.8555H1.14355" stroke="#2A3541" stroke-width="2"
                                            stroke-linecap="round" stroke-linejoin="round" />
                                        <path d="M62.9805 69.8553V32.1016" stroke="#2A3541" stroke-width="2"
                                            stroke-miterlimit="10" />
                                        <path d="M8.00879 69.8553V32.1016" stroke="#2A3541" stroke-width="2"
                                            stroke-miterlimit="10" />
                                        <path
                                            d="M26.9082 68.6071V58.3106C26.9082 55.0958 26.9082 53.4941 27.5946 52.2929C28.0536 51.5137 28.7032 50.8641 29.4823 50.4052C30.6264 49.7187 32.2853 49.7188 35.5001 49.7188C38.7149 49.7188 40.3165 49.7187 41.5063 50.4052C42.2906 50.8575 42.9418 51.5086 43.3941 52.2929C44.0919 53.4941 44.0919 55.0958 44.0919 58.3106V68.6071"
                                            stroke="#2A3541" stroke-width="2" stroke-miterlimit="10" />
                                        <path opacity="0.4"
                                            d="M68.4378 29.6778C67.8038 30.431 67.012 31.0357 66.1184 31.4489C65.2248 31.8621 64.2512 32.0738 63.2667 32.069C62.4238 32.0887 61.5853 31.9421 60.799 31.6377C60.0127 31.3333 59.2942 30.877 58.6843 30.2948C58.0745 29.7126 57.5854 29.016 57.2448 28.2446C56.9043 27.4733 56.7191 26.6425 56.6998 25.7996C56.6578 27.5029 55.9415 29.1199 54.708 30.2955C53.4746 31.471 51.8249 32.1089 50.1215 32.069C49.2786 32.0887 48.4401 31.9421 47.6538 31.6377C46.8676 31.3333 46.1489 30.877 45.5391 30.2948C44.9293 29.7126 44.4401 29.016 44.0996 28.2446C43.7591 27.4733 43.5739 26.6425 43.5546 25.7996C43.5353 26.6425 43.3501 27.4733 43.0096 28.2446C42.6691 29.016 42.1799 29.7126 41.5701 30.2948C40.9603 30.877 40.2417 31.3333 39.4554 31.6377C38.6692 31.9421 37.8306 32.0887 36.9877 32.069C36.1448 32.0887 35.3063 31.9421 34.52 31.6377C33.7338 31.3333 33.0152 30.877 32.4054 30.2948C31.7955 29.7126 31.3064 29.016 30.9659 28.2446C30.6254 27.4733 30.4402 26.6425 30.4209 25.7996C30.4016 26.6435 30.216 27.4752 29.8748 28.2473C29.5335 29.0194 29.0434 29.7165 28.4323 30.2988C27.8213 30.8812 27.1013 31.3373 26.3138 31.6411C25.5262 31.9448 24.6864 32.0902 23.8426 32.069C22.1391 32.1089 20.4895 31.471 19.2561 30.2955C18.0226 29.1199 17.3062 27.5029 17.2643 25.7996C17.2252 27.4999 16.5129 29.1151 15.2838 30.2906C14.0547 31.4661 12.4092 32.1058 10.7088 32.069C9.7242 32.0746 8.75034 31.8633 7.8566 31.45C6.96286 31.0367 6.17116 30.4316 5.5377 29.6778C3.75298 27.5155 4.67966 24.4953 5.75507 21.9327L10.3313 10.8238C12.1046 7.44883 12.9855 5.77853 14.5758 4.84041C16.166 3.90228 18.1337 3.90234 22.0921 3.90234H51.8375C55.7845 3.90234 57.7638 3.90228 59.354 4.84041C60.9442 5.77853 61.8252 7.44883 63.587 10.8238L68.1632 21.9327C69.2844 24.4953 70.2225 27.5155 68.4378 29.6778Z"
                                            fill="#3D4E60" />
                                        <path
                                            d="M68.3919 29.4484C67.749 30.2656 66.9289 30.926 65.9934 31.3798C65.058 31.8337 64.0316 32.0691 62.9919 32.0683C61.1714 32.0683 59.4254 31.345 58.1381 30.0577C56.8508 28.7704 56.1276 27.0246 56.1276 25.204C56.1276 27.0246 55.4044 28.7704 54.1171 30.0577C52.8298 31.345 51.0838 32.0683 49.2633 32.0683C47.4427 32.0683 45.6968 31.345 44.4095 30.0577C43.1222 28.7704 42.3989 27.0246 42.3989 25.204C42.3989 27.0246 41.6758 28.7704 40.3885 30.0577C39.1011 31.345 37.3551 32.0683 35.5346 32.0683C33.7141 32.0683 31.9681 31.345 30.6808 30.0577C29.3935 28.7704 28.6703 27.0246 28.6703 25.204C28.6703 27.0246 27.9471 28.7704 26.6598 30.0577C25.3725 31.345 23.6265 32.0683 21.806 32.0683C19.9854 32.0683 18.2395 31.345 16.9522 30.0577C15.6649 28.7704 14.9416 27.0246 14.9416 25.204C14.9416 27.0246 14.2185 28.7704 12.9312 30.0577C11.6438 31.345 9.89784 32.0683 8.07731 32.0683C7.03758 32.0691 6.01128 31.8337 5.07584 31.3798C4.1404 30.926 3.3203 30.2656 2.6774 29.4484C0.801156 27.0688 1.7736 23.7282 2.89478 20.9367L7.71127 8.74107C9.56464 5.04577 10.4798 3.20386 12.1501 2.17421C13.8205 1.14456 15.8684 1.14453 20.0099 1.14453H51.0823C55.2124 1.14453 57.2831 1.14456 58.942 2.17421C60.6009 3.20386 61.5275 5.04577 63.3695 8.74107L68.1974 20.9367C69.2843 23.7511 70.2681 27.0688 68.3919 29.4484Z"
                                            stroke="#2A3541" stroke-width="2" stroke-miterlimit="10" />
                                    </g>
                                    <defs>
                                        <clipPath id="clip0_2018_460">
                                            <rect width="71" height="71" fill="white" />
                                        </clipPath>
                                    </defs>
                                </svg>