  <svg width="90" height="48" viewBox="0 0 90 48" fill="none"
                                        xmlns="http://www.w3.org/2000/svg">
                                        <path
                                            d="M85.7182 0.000488281H4.15402C1.85982 0.000488281 0 1.87364 0 4.18428V43.4772C0 45.7878 1.85982 47.661 4.15402 47.661H85.7182C88.0124 47.661 89.8723 45.7878 89.8723 43.4772V4.18428C89.8723 1.87364 88.0124 0.000488281 85.7182 0.000488281Z"
                                            fill="white" />
                                        <path
                                            d="M24.1947 9.6608H15.3751C15.1168 9.65747 14.8604 9.7063 14.6211 9.80432C14.3818 9.90234 14.1645 10.0476 13.9819 10.2315C13.7992 10.4155 13.6549 10.6345 13.5576 10.8755C13.4603 11.1165 13.4119 11.3746 13.4152 11.6347V24.1427C13.4002 24.4109 13.4398 24.6792 13.5314 24.9314C13.6229 25.1836 13.7647 25.4143 13.9479 25.6094C14.131 25.8046 14.3518 25.9601 14.5967 26.0663C14.8416 26.1726 15.1053 26.2273 15.372 26.2273C15.6386 26.2273 15.9025 26.1726 16.1473 26.0663C16.3922 25.9601 16.613 25.8046 16.7962 25.6094C16.9793 25.4143 17.1211 25.1836 17.2127 24.9314C17.3043 24.6792 17.3438 24.4109 17.3288 24.1427V19.8347H23.1777C23.655 19.8347 24.1127 19.6437 24.4503 19.3038C24.7878 18.9639 24.9774 18.5029 24.9774 18.0222C24.9774 17.5414 24.7878 17.0804 24.4503 16.7405C24.1127 16.4006 23.655 16.2097 23.1777 16.2097H17.3288V13.286H24.1947C24.672 13.286 25.1297 13.095 25.4672 12.7551C25.8047 12.4152 25.9943 11.954 25.9943 11.4733C25.9943 10.9926 25.8047 10.5316 25.4672 10.1917C25.1297 9.85176 24.672 9.6608 24.1947 9.6608Z"
                                            fill="#009FFF" />
                                        <path
                                            d="M31.155 9.50503C30.8972 9.50253 30.6416 9.55197 30.4031 9.65037C30.1645 9.74876 29.9478 9.89415 29.7658 10.078C29.5838 10.2619 29.4402 10.4805 29.3432 10.7211C29.2463 10.9616 29.198 11.2193 29.2013 11.4789V23.9932C29.198 24.2525 29.2463 24.5098 29.3433 24.75C29.4403 24.9903 29.5841 25.2086 29.7662 25.392C29.9483 25.5754 30.165 25.7201 30.4035 25.8178C30.642 25.9155 30.8975 25.9642 31.155 25.9609H39.3029C39.7802 25.9609 40.2379 25.7699 40.5754 25.43C40.9129 25.0901 41.1025 24.6291 41.1025 24.1484C41.1025 23.6676 40.9129 23.2065 40.5754 22.8666C40.2379 22.5266 39.7802 22.3357 39.3029 22.3357H33.1396V11.4789C33.143 11.2167 33.0938 10.9565 32.995 10.7138C32.8961 10.4711 32.7497 10.251 32.5644 10.0667C32.3791 9.88236 32.1587 9.73763 31.9166 9.64112C31.6744 9.54461 31.4154 9.49833 31.155 9.50503Z"
                                            fill="#009FFF" />
                                        <path
                                            d="M50.6988 9.36519C49.5789 9.3354 48.4644 9.53132 47.4207 9.94152C46.3771 10.3517 45.4253 10.968 44.6214 11.7539C43.8176 12.5398 43.1779 13.4795 42.7398 14.518C42.3016 15.5565 42.074 16.6728 42.0703 17.8011V17.8444C42.0703 22.6242 45.7682 26.2307 50.6433 26.2307C55.5184 26.2307 59.2718 22.5063 59.2718 17.8011V17.7265C59.2718 12.9468 55.5739 9.34033 50.6927 9.34033L50.6988 9.36519ZM55.198 17.8444C55.2238 18.4549 55.1265 19.0644 54.9118 19.6359C54.6972 20.2074 54.3696 20.7292 53.9491 21.1696C53.5285 21.61 53.0236 21.9598 52.465 22.1981C51.9063 22.4364 51.3055 22.5582 50.6988 22.5559C50.0872 22.5555 49.482 22.4309 48.9193 22.1895C48.3566 21.9481 47.8481 21.595 47.424 21.1511C47 20.7072 46.6692 20.1816 46.4514 19.606C46.2336 19.0304 46.1333 18.4166 46.1565 17.8011V17.7265C46.1307 17.1161 46.2281 16.5066 46.4427 15.9351C46.6574 15.3636 46.9849 14.8418 47.4054 14.4014C47.826 13.961 48.3309 13.6112 48.8895 13.3729C49.4482 13.1346 50.049 13.0128 50.6557 13.0151C51.2675 13.0163 51.8729 13.1417 52.4356 13.3838C52.9983 13.6259 53.5069 13.9796 53.9308 14.424C54.3548 14.8684 54.6855 15.3943 54.9032 15.9703C55.1209 16.5462 55.2211 17.1604 55.198 17.7763V17.8444Z"
                                            fill="#009FFF" />
                                        <path
                                            d="M67.4722 26.25C69.1794 26.2881 70.8399 25.6865 72.1316 24.5616L72.4089 24.3196L72.4952 24.6795C72.6223 25.0971 72.8841 25.4601 73.2391 25.7108C73.5941 25.9616 74.022 26.0857 74.4551 26.0638C74.7177 26.0687 74.9787 26.0208 75.2226 25.9228C75.4666 25.8248 75.6887 25.6788 75.8759 25.4932C76.0631 25.3076 76.2115 25.0862 76.3126 24.842C76.4136 24.5978 76.4652 24.3358 76.4643 24.0712V16.1568C76.4643 13.9221 75.848 12.1964 74.6831 11.0357C73.506 9.79418 71.6015 9.17344 69.2349 9.17344C67.4474 9.1511 65.6725 9.47787 64.0084 10.1356C63.6758 10.2693 63.39 10.4993 63.187 10.7965C62.9841 11.0937 62.8732 11.4447 62.8683 11.8054C62.8731 12.2735 63.062 12.7206 63.3936 13.0487C63.7251 13.3768 64.1723 13.5592 64.6371 13.5559C64.8461 13.5514 65.0535 13.518 65.2534 13.4566C66.3516 13.0287 67.5213 12.818 68.6987 12.8359C69.6603 12.7748 70.6142 13.0439 71.4043 13.5994C71.7315 13.8821 71.9927 14.2337 72.1695 14.6296C72.3464 15.0255 72.4344 15.4558 72.4274 15.8899V16.2003L72.1316 16.1133C70.9022 15.7666 69.6302 15.5974 68.3536 15.6106C66.2396 15.6106 64.5015 16.1133 63.3182 17.0568C62.7357 17.5317 62.2713 18.1371 61.9621 18.8246C61.6528 19.5122 61.5073 20.263 61.537 21.0172V21.073C61.537 24.1332 63.953 26.2687 67.4167 26.2687L67.4722 26.25ZM65.6232 20.8434C65.6143 20.3927 65.7455 19.9505 65.9986 19.5787C66.2517 19.2069 66.614 18.9241 67.0346 18.7701C67.7083 18.5073 68.4262 18.3788 69.1486 18.3915C70.252 18.3825 71.3493 18.5565 72.3966 18.9066L72.5507 18.9563V19.8999C72.5507 21.7621 70.8558 23.109 68.5137 23.109C67.8467 23.1245 67.1875 22.9617 66.6031 22.6373C66.2997 22.4647 66.0484 22.2125 65.8759 21.9076C65.7033 21.6026 65.616 21.2564 65.6232 20.9055V20.8434Z"
                                            fill="#009FFF" />
                                        <path
                                            d="M58.9805 30.8008C59.5702 30.7785 60.1586 30.8769 60.71 31.0889C61.2611 31.3008 61.7645 31.622 62.1895 32.0342C62.6145 32.4465 62.9527 32.9413 63.1836 33.4883C63.4144 34.0351 63.5332 34.6235 63.5332 35.2178C63.5332 35.8121 63.4145 36.4004 63.1836 36.9473C63.4527 37.4941 62.6143 37.9881 62.1895 38.4004C61.7645 38.8126 61.2612 39.1348 60.71 39.3467C60.1586 39.5586 59.5702 39.6561 58.9805 39.6338H52.4658C51.3313 39.5909 50.2573 39.1067 49.4697 38.2832C48.6823 37.4597 48.2422 36.3611 48.2422 35.2178C48.2422 34.0743 48.6821 32.975 49.4697 32.1514C50.2573 31.3279 51.3313 30.8437 52.4658 30.8008H58.9805ZM54.0557 32.6133C53.9339 32.6152 53.8142 32.6468 53.707 32.7051C53.5998 32.7634 53.5078 32.8476 53.4395 32.9492L51.332 35.4316C51.1842 35.5802 51.0984 35.78 51.0918 35.9902C51.0926 36.054 51.1056 36.1173 51.1309 36.1758C51.1562 36.2343 51.1933 36.2871 51.2393 36.3311C51.2851 36.3749 51.3393 36.4091 51.3984 36.4316C51.4578 36.4542 51.5216 36.4644 51.585 36.4619H53.5938V37.083C53.5929 37.1468 53.605 37.2104 53.6289 37.2695C53.6528 37.3285 53.6877 37.3827 53.7324 37.4277C53.7772 37.4728 53.831 37.5082 53.8896 37.5322C53.9482 37.5562 54.011 37.5682 54.0742 37.5674C54.1379 37.5682 54.2017 37.5562 54.2607 37.5322C54.3197 37.5083 54.3737 37.4727 54.4189 37.4277C54.4642 37.3827 54.4999 37.3286 54.5244 37.2695C54.5489 37.2104 54.5615 37.147 54.5615 37.083V36.4619H54.8389C54.9445 36.4587 55.0445 36.4143 55.1182 36.3379C55.1918 36.2614 55.2334 36.1592 55.2334 36.0527C55.2342 35.9977 55.2244 35.9427 55.2041 35.8916C55.1837 35.8404 55.1527 35.7942 55.1143 35.7549C55.0758 35.7156 55.03 35.6844 54.9795 35.6631C54.929 35.6418 54.875 35.6309 54.8203 35.6309H54.543V33.0977C54.5429 33.0336 54.5304 32.9702 54.5059 32.9111C54.4813 32.852 54.4457 32.798 54.4004 32.7529C54.3551 32.7079 54.3012 32.6724 54.2422 32.6484C54.1831 32.6245 54.1193 32.6125 54.0557 32.6133ZM59.6152 32.6445C59.5161 32.6442 59.4184 32.6698 59.332 32.7188C59.2457 32.7677 59.1732 32.8384 59.1221 32.9238L58.0557 34.3389L56.9775 32.8994C56.9287 32.8192 56.8595 32.7537 56.7773 32.709C56.6951 32.6643 56.6022 32.6416 56.5088 32.6445C56.4429 32.6429 56.3776 32.6551 56.3164 32.6797C56.2551 32.7043 56.199 32.7411 56.1523 32.7881C56.1056 32.8351 56.0684 32.8914 56.0439 32.9531C56.0195 33.0148 56.0081 33.0811 56.0098 33.1475C56.0172 33.2876 56.0717 33.4213 56.1641 33.5264L57.3965 35.0596L56.0781 36.6855C55.9854 36.7947 55.9326 36.9335 55.9297 37.0771C55.9289 37.1382 55.9405 37.1992 55.9629 37.2559C55.9854 37.3125 56.0183 37.3645 56.0605 37.4082C56.1028 37.4519 56.1534 37.4866 56.209 37.5107C56.2647 37.5349 56.3251 37.548 56.3857 37.5488C56.4849 37.5492 56.5825 37.5235 56.6689 37.4746C56.7553 37.4257 56.8277 37.355 56.8789 37.2695L58.0254 35.7734L59.1777 37.2939C59.2256 37.3737 59.2938 37.4397 59.375 37.4844C59.456 37.5289 59.5474 37.5512 59.6396 37.5488C59.707 37.5522 59.7748 37.5414 59.8379 37.5176C59.9009 37.4938 59.9584 37.4572 60.0068 37.4102C60.0554 37.363 60.0942 37.3058 60.1201 37.2432C60.1459 37.1807 60.1591 37.1136 60.1582 37.0459C60.1508 36.9058 60.0962 36.772 60.0039 36.667L58.6904 35.041L59.9238 33.5078C60.0188 33.3995 60.0726 33.2607 60.0771 33.1162C60.0771 32.9923 60.0288 32.8734 59.9424 32.7852C59.8559 32.6969 59.7384 32.6462 59.6152 32.6445ZM53.5938 35.6348H52.2559L53.5938 34.0518V35.6348Z"
                                            fill="#009FFF" />
                                        <path
                                            d="M37.0479 30.8005H30.8847C30.295 30.7782 29.7069 30.8759 29.1556 31.0878C28.6043 31.2997 28.101 31.6215 27.676 32.0338C27.251 32.4461 26.9129 32.9405 26.682 33.4874C26.4511 34.0344 26.332 34.6227 26.332 35.217C26.332 35.8114 26.4511 36.3996 26.682 36.9465C26.9129 37.4934 27.251 37.9878 27.676 38.4001C28.101 38.8125 28.6043 39.1342 29.1556 39.3461C29.7069 39.558 30.295 39.6559 30.8847 39.6336H37.0479C37.6376 39.6559 38.2257 39.558 38.7771 39.3461C39.3284 39.1342 39.8316 38.8125 40.2566 38.4001C40.6817 37.9878 41.0197 37.4934 41.2506 36.9465C41.4816 36.3996 41.6006 35.8114 41.6006 35.217C41.6006 34.6227 41.4816 34.0344 41.2506 33.4874C41.0197 32.9405 40.6817 32.4461 40.2566 32.0338C39.8316 31.6215 39.3284 31.2997 38.7771 31.0878C38.2257 30.8759 37.6376 30.7782 37.0479 30.8005ZM33.1096 36.0208C33.1109 36.2412 33.0659 36.4592 32.9777 36.6608C32.8894 36.8624 32.7599 37.043 32.5976 37.1906C32.4352 37.3383 32.2437 37.4499 32.0357 37.5178C31.8276 37.5858 31.6076 37.6087 31.3901 37.5851C30.8094 37.6051 30.2423 37.4059 29.8 37.0265C29.7481 36.9804 29.7061 36.9241 29.6764 36.8612C29.6468 36.7982 29.6301 36.7299 29.6274 36.6602C29.629 36.5307 29.6808 36.4069 29.7718 36.3153C29.8627 36.2237 29.9857 36.1714 30.1143 36.1698C30.2332 36.1669 30.3485 36.2115 30.4348 36.2939C30.6945 36.5455 31.0421 36.6839 31.4024 36.6789C31.4912 36.6934 31.5821 36.688 31.6687 36.6634C31.7552 36.6388 31.8354 36.5954 31.9035 36.5363C31.9717 36.4771 32.0261 36.4037 32.063 36.3211C32.1 36.2385 32.1185 36.1487 32.1174 36.0581C32.1174 35.6422 31.7476 35.4374 31.1498 35.4374H30.9772C30.8622 35.4374 30.7518 35.3919 30.6699 35.3105C30.588 35.2292 30.5412 35.1187 30.5395 35.0029C30.5441 34.9215 30.5664 34.842 30.6048 34.7701C30.6431 34.6983 30.6966 34.6357 30.7615 34.5869L31.7352 33.5876H30.2068C30.1004 33.5748 30.0024 33.5232 29.9313 33.4426C29.8602 33.3619 29.821 33.2578 29.821 33.1499C29.821 33.0421 29.8602 32.9379 29.9313 32.8573C30.0024 32.7766 30.1004 32.725 30.2068 32.7122H32.5611C32.625 32.7044 32.6897 32.7102 32.7512 32.7294C32.8127 32.7485 32.8695 32.7805 32.9178 32.8233C32.9661 32.8661 33.0048 32.9188 33.0315 32.9778C33.0582 33.0367 33.0723 33.1007 33.0727 33.1655C33.0673 33.2764 33.0374 33.3845 32.9851 33.4823C32.9329 33.58 32.8596 33.6648 32.7706 33.7303L31.7969 34.6863C32.4625 34.798 33.1096 35.1456 33.1096 36.0395V36.0208ZM37.6027 37.5478C37.5093 37.5502 37.417 37.5279 37.3349 37.4833C37.2527 37.4386 37.1836 37.3732 37.1342 37.2934L35.9879 35.7726L34.8415 37.2685C34.7875 37.3514 34.7145 37.42 34.6287 37.4686C34.5429 37.5172 34.4468 37.5443 34.3484 37.5478C34.2875 37.5479 34.2272 37.5356 34.171 37.5118C34.1149 37.4879 34.064 37.453 34.0215 37.409C33.979 37.365 33.9456 37.3128 33.9234 37.2557C33.9013 37.1985 33.8907 37.1374 33.8924 37.0761C33.8953 36.9324 33.9475 36.7943 34.0403 36.6851L35.3592 35.0587L34.1266 33.5255C34.0364 33.4196 33.9843 33.2863 33.9787 33.1469C33.977 33.0804 33.9887 33.0142 34.0132 33.9525C34.0377 32.8907 34.0744 32.8346 34.1211 32.7876C34.1678 32.7405 34.2235 32.7034 34.2849 32.6788C34.3462 32.6541 34.4118 32.6423 34.4779 32.6441C34.5712 32.6417 34.6635 32.664 34.7456 32.7086C34.8278 32.7532 34.8969 32.8187 34.9463 32.8985L36.0248 34.3387L37.0911 32.9234C37.1422 32.8378 37.2146 32.7671 37.301 32.7182C37.3875 32.6692 37.485 32.6437 37.5841 32.6441C37.7073 32.6457 37.8249 32.6961 37.9114 32.7844C37.9979 32.8727 38.0464 32.9918 38.0464 33.1158C38.0418 33.2603 37.9873 33.3985 37.8923 33.5068L36.6597 35.04L37.9786 36.6664C38.0687 36.7723 38.1208 36.9058 38.1265 37.0452C38.1284 37.1138 38.116 37.1821 38.09 37.2457C38.064 37.3092 38.0251 37.3665 37.9757 37.4139C37.9263 37.4613 37.8676 37.4978 37.8033 37.5209C37.739 37.5439 37.6707 37.5531 37.6027 37.5478Z"
                                            fill="#009FFF" />
                                    </svg>