<svg width="90" height="63" viewBox="0 0 90 63" fill="none"
                                    xmlns="http://www.w3.org/2000/svg">
                                    <g clip-path="url(#clip0_2018_442)">
                                        <path
                                            d="M80.2287 43.0776V5.29297C80.2287 4.12123 79.766 2.99758 78.9424 2.16904C78.1187 1.34049 77.0016 0.875 75.8368 0.875H72.2109V46.0058"
                                            stroke="#2A3541" stroke-width="2" stroke-miterlimit="10" />
                                        <path
                                            d="M72.4666 46.0042V0.847662H30.9819C30.1891 0.846535 29.4038 1.00276 28.6712 1.30744C27.9385 1.61211 27.2729 2.05929 26.7123 2.62321C26.1517 3.18714 25.7072 3.85677 25.4043 4.59379C25.1015 5.33081 24.9462 6.12066 24.9473 6.91817V33.8289"
                                            stroke="#2A3541" stroke-width="2" stroke-miterlimit="10" />
                                        <path
                                            d="M49.06 15.4554H55.2478C55.4938 15.4466 55.7356 15.389 55.9594 15.2861C56.1833 15.1832 56.3847 15.0369 56.5523 14.8556C56.7199 14.6743 56.8503 14.4615 56.9361 14.2294C57.0219 13.9974 57.0613 13.7507 57.0522 13.5033V3.16016H47.2386V13.5033C47.2295 13.7521 47.2695 14.0002 47.3563 14.2333C47.4432 14.4665 47.5751 14.6799 47.7445 14.8615C47.9138 15.043 48.1173 15.189 48.3431 15.2909C48.5689 15.3929 48.8126 15.4488 49.06 15.4554Z"
                                            fill="#D84D5D" />
                                        <path
                                            d="M47.1189 15.0168H54.6346C55.2132 15.0146 55.7674 14.7817 56.1758 14.3692C56.5842 13.9568 56.8135 13.3984 56.8135 12.8163V1.17188H44.8975V12.8335C44.8997 13.1239 44.959 13.411 45.0721 13.6783C45.1851 13.9455 45.3496 14.1876 45.5561 14.3906C45.7626 14.5935 46.0071 14.7533 46.2753 14.8608C46.5435 14.9683 46.8303 15.0214 47.1189 15.0168Z"
                                            stroke="#2A3541" stroke-width="2" stroke-miterlimit="10" />
                                        <path
                                            d="M64.3384 49.0256L83.8211 41.7735C84.3344 41.5926 84.8785 41.5169 85.4213 41.5508C85.9611 41.593 86.4874 41.7414 86.9704 41.9875C87.4565 42.2349 87.8878 42.5785 88.2386 42.9978C88.5881 43.4215 88.8512 43.9103 89.0131 44.4363C89.281 45.4763 89.1503 46.5796 88.6471 47.5272C88.1502 48.4715 87.3126 49.1885 86.3065 49.5307L54.2268 61.081C53.0757 61.4913 51.8165 61.4731 50.6776 61.0296L28.2669 52.4675C26.6694 51.869 24.9142 51.8508 23.3047 52.4161L21.1514 53.1867"
                                            stroke="#2A3541" stroke-width="2" stroke-miterlimit="10" />
                                        <path
                                            d="M16.3672 36.885L32.4879 31.0884C33.2393 30.8154 34.0448 30.7274 34.837 30.8316C35.6349 30.9342 36.3967 31.2278 37.0585 31.6878"
                                            stroke="#2A3541" stroke-width="2" stroke-miterlimit="10" />
                                        <path
                                            d="M36.8206 31.5273L62.3549 43.5829C62.8378 43.8109 63.2713 44.1325 63.6305 44.5292C63.9898 44.9258 64.2678 45.3898 64.4488 45.8946C64.8133 46.9168 64.7644 48.0421 64.3126 49.0283C64.0931 49.5174 63.7792 49.9577 63.389 50.3237C62.9989 50.6897 62.54 50.9741 62.04 51.1603C61.5415 51.3439 61.0119 51.4264 60.4816 51.4029C59.9512 51.3794 59.4308 51.2503 58.9503 51.0233L33.416 38.9679"
                                            stroke="#2A3541" stroke-width="2" stroke-miterlimit="10" />
                                        <path
                                            d="M12.8351 34.7094L2.82566 37.7403C2.13056 37.9507 1.54595 38.4282 1.19859 39.0694C0.851236 39.7105 0.769143 40.4635 0.970172 41.1652L6.52817 60.1217C6.73547 60.8225 7.20941 61.4126 7.84697 61.7638C8.48452 62.1149 9.23414 62.1987 9.93275 61.9968L19.9422 58.9658C20.636 58.7536 21.2192 58.2758 21.5663 57.6352C21.9133 56.9946 21.9964 56.2426 21.7977 55.541L16.2397 36.5845C16.0324 35.8836 15.5585 35.2935 14.9209 34.9424C14.2834 34.5912 13.5337 34.5075 12.8351 34.7094Z"
                                            stroke="#2A3541" stroke-width="2" stroke-miterlimit="10" />
                                        <path opacity="0.4"
                                            d="M11.6778 37.3493L2.63015 40.0891C1.99399 40.2759 1.4575 40.7091 1.13837 41.2933C0.81923 41.8776 0.743514 42.5653 0.927865 43.2057L5.95816 60.3299C6.04902 60.6493 6.202 60.9474 6.4083 61.2068C6.6146 61.4663 6.8701 61.6819 7.15991 61.8413C7.44972 62.0006 7.76809 62.1003 8.09656 62.1348C8.42503 62.1694 8.75703 62.1379 9.07332 62.0423L18.121 59.2939C18.4366 59.2024 18.7311 59.0491 18.9877 58.8427C19.2442 58.6364 19.4577 58.3811 19.6159 58.0915C19.7741 57.8019 19.8738 57.4837 19.9094 57.1552C19.945 56.8267 19.9157 56.4944 19.8233 56.1773L14.8015 39.0531C14.7088 38.7341 14.5542 38.4369 14.3467 38.1783C14.1392 37.9197 13.8829 37.705 13.5925 37.5466C13.3021 37.3882 12.9834 37.2892 12.6548 37.2553C12.3262 37.2214 11.9941 37.2534 11.6778 37.3493Z"
                                            fill="#3D4E60" />
                                    </g>
                                    <defs>
                                        <clipPath id="clip0_2018_442">
                                            <rect width="90" height="63" fill="white" />
                                        </clipPath>
                                    </defs>
                                </svg>