<svg width="84" height="63" viewBox="0 0 84 63" fill="none" xmlns="http://www.w3.org/2000/svg">
<path d="M0 63L10.5004 0L42.0005 31.5L73.5007 0L84 63H63.0003L60.0005 45.0002L42.0005 63L23.9995 45.0002L20.9997 63H0Z" fill="#D2D2D2"/>
<path d="M42.7187 12.6067C45.6778 7.5249 48.6402 2.80952 50.6353 0.0078125H37.4509C31.9542 7.72738 25.39 18.8253 23.5743 26.6527C23.1487 28.2472 22.9326 29.8904 22.9316 31.5408C22.9316 41.995 31.5085 50.5024 42.0474 50.5024C52.5863 50.5024 61.1654 41.9972 61.1654 31.5408C61.1654 21.4091 52.911 12.9633 42.7187 12.6067ZM50.3315 31.5408C50.3363 33.1866 49.8526 34.7969 48.9417 36.1676C48.0308 37.5384 46.7337 38.6081 45.2145 39.2412C43.6953 39.8743 42.0224 40.0423 40.4076 39.7241C38.7928 39.4059 37.3088 38.6157 36.1434 37.4535C34.978 36.2914 34.1836 34.8095 33.8609 33.1957C33.5382 31.5818 33.7016 29.9084 34.3305 28.3875C34.9594 26.8666 36.0254 25.5664 37.3936 24.6517C38.7619 23.737 40.3708 23.2488 42.0166 23.249C44.2181 23.2482 46.3301 24.1207 47.8889 25.6753C49.4478 27.2298 50.3263 29.3393 50.3315 31.5408Z" fill="#E61E1E"/>
</svg>
