<svg width="91" height="62" viewBox="0 0 91 62" fill="none"
                                    xmlns="http://www.w3.org/2000/svg">
                                    <g clip-path="url(#clip0_2018_477)">
                                        <path
                                            d="M89.992 46.2308C88.8629 22.2629 89.1738 23.5927 88.4865 22.3608L81.3029 8.55762C80.9419 7.84315 80.3888 7.24278 79.7054 6.82357C79.0221 6.40437 78.2353 6.1828 77.4329 6.18365H61.282C60.6091 6.18308 59.9513 6.3819 59.392 6.75476V3.42628C59.3963 2.97856 59.3117 2.53442 59.1431 2.11944C58.9745 1.70446 58.7252 1.32687 58.4096 1.00838C58.094 0.689895 57.7183 0.436864 57.3041 0.263797C56.89 0.0907305 56.4456 0.00105558 55.9965 0H3.39561C2.94656 0.00105558 2.50216 0.0907305 2.08801 0.263797C1.67386 0.436864 1.29816 0.689895 0.982535 1.00838C0.666915 1.32687 0.417625 1.70446 0.249023 2.11944C0.0804207 2.53442 -0.00416161 2.97856 0.000157443 3.42628V41.5644C-0.00178467 42.4349 0.328663 43.2735 0.924357 43.9099C1.52005 44.5463 2.33634 44.9328 3.20744 44.9908V49.6489C3.21368 50.2486 3.45371 50.8223 3.87671 51.2486C4.29971 51.675 4.87247 51.9205 5.4738 51.9332H12.4611C12.6279 53.4112 13.0851 54.8418 13.8066 56.1436C14.5281 57.4453 15.4998 58.5926 16.666 59.5199C17.8323 60.4471 19.1704 61.1362 20.6038 61.5478C22.0372 61.9593 23.5379 62.0853 25.0202 61.9184C27.5528 61.5942 29.9042 60.4355 31.7008 58.6264C33.4974 56.8173 34.6363 54.4615 34.9365 51.9332H37.2029C37.3303 52.5925 37.6811 53.1881 38.1965 53.6202C38.7118 54.0524 39.3605 54.2949 40.0338 54.3071H52.5929C53.2676 54.2967 53.9182 54.0552 54.4352 53.6228C54.9523 53.1905 55.3042 52.5938 55.432 51.9332H62.0593C62.2261 53.4112 62.6833 54.8418 63.4048 56.1436C64.1263 57.4453 65.0979 58.5926 66.2642 59.5199C67.4305 60.4471 68.7685 61.1362 70.202 61.5478C71.6354 61.9593 73.1361 62.0853 74.6183 61.9184C77.151 61.5942 79.5024 60.4355 81.299 58.6264C83.0956 56.8173 84.2345 54.4615 84.5347 51.9332C85.2747 51.9317 86.0067 51.781 86.6869 51.4902C87.367 51.1995 87.9811 50.7747 88.4924 50.2413C89.0037 49.7079 89.4015 49.0769 89.662 48.3863C89.9225 47.6957 90.0403 46.9598 90.0083 46.2227L89.992 46.2308ZM3.39561 43.09C3.19553 43.0922 2.99704 43.0544 2.81186 42.9788C2.62668 42.9032 2.45858 42.7914 2.31747 42.65C2.17637 42.5085 2.06513 42.3403 1.99033 42.1553C1.91553 41.9702 1.8787 41.7721 1.88199 41.5726C1.98017 41.5726 1.88199 42.7147 1.88199 3.43444C1.87872 3.23458 1.9155 3.03607 1.99021 2.85058C2.06491 2.66509 2.17601 2.49636 2.317 2.35426C2.45799 2.21216 2.62604 2.09962 2.81126 2.02314C2.99648 1.94667 3.19514 1.90781 3.39561 1.90892H55.9965C56.197 1.90781 56.3957 1.94667 56.5809 2.02314C56.7661 2.09962 56.9341 2.21216 57.0751 2.35426C57.2161 2.49636 57.3272 2.66509 57.4019 2.85058C57.4766 3.03607 57.5134 3.23458 57.5102 3.43444C57.6002 3.43444 57.5102 2.39022 57.5102 43.09H31.6311C30.5878 41.9865 29.3293 41.1074 27.9328 40.5065C26.5364 39.9055 25.0316 39.5956 23.5106 39.5956C21.9897 39.5956 20.4848 39.9055 19.0884 40.5065C17.692 41.1074 16.4335 41.9865 15.3902 43.09H3.39561ZM12.2729 50.0405H5.37562C5.27699 50.0328 5.18452 49.9897 5.11532 49.9192C5.04612 49.8487 5.00489 49.7556 4.99926 49.6571V45.2681C4.99926 45.0724 5.09742 44.9826 5.28561 44.8848H13.9747C13.0396 46.4602 12.4589 48.2193 12.2729 50.0405ZM32.9565 51.9414C32.6701 54.2129 31.5618 56.302 29.8399 57.8165C28.118 59.331 25.9008 60.1668 23.6047 60.1668C21.3086 60.1668 19.0914 59.331 17.3695 57.8165C15.6476 56.302 14.5394 54.2129 14.2529 51.9414C14.1005 50.4892 14.2855 49.0216 14.7934 47.6522C15.3014 46.2828 16.1187 45.0483 17.182 44.0445C17.5345 43.6961 17.9149 43.3769 18.3193 43.09C19.8211 42.1338 21.5615 41.6162 23.3432 41.5957C25.125 41.5752 26.8768 42.0527 28.4004 42.974C29.9239 43.8954 31.1583 45.2236 31.9635 46.8085C32.7688 48.3934 33.1128 50.1715 32.9565 51.9414ZM53.4111 51.3702C53.4111 51.6458 53.3019 51.9102 53.1072 52.1058C52.9126 52.3014 52.6483 52.4123 52.372 52.4145H39.8456C39.6806 52.4092 39.5195 52.3632 39.3768 52.2806C39.234 52.1981 39.1139 52.0815 39.0274 51.9414C38.8393 51.6558 38.8392 51.46 38.8392 50.6034C38.8414 50.3286 38.9513 50.0654 39.1454 49.8702C39.3396 49.6751 39.6027 49.5635 39.8784 49.5592H52.4047C52.57 49.563 52.7317 49.6083 52.8747 49.6911C53.0177 49.7738 53.1375 49.8912 53.2229 50.0323C53.542 50.3179 53.4438 50.5137 53.4438 51.3702H53.4111ZM55.3011 50.0405C55.1918 49.372 54.8464 48.7645 54.3272 48.3277C53.8081 47.8908 53.1494 47.6535 52.4702 47.6585H39.8456C39.1723 47.6706 38.5237 47.9131 38.0083 48.3453C37.4929 48.7775 37.1422 49.373 37.0147 50.0323H34.7483C34.6614 48.2294 34.0721 46.4864 33.0465 44.999H57.412C57.412 48.1316 57.2238 48.8984 57.9765 50.0323L55.3011 50.0405ZM87.6929 38.2442H85.5247C85.4607 38.2479 85.3967 38.2378 85.3369 38.2148C85.2771 38.1918 85.2229 38.1563 85.178 38.1108C85.1331 38.0652 85.0984 38.0106 85.0764 37.9506C85.0543 37.8906 85.0454 37.8267 85.0502 37.7629C84.7638 30.9185 84.6738 31.3018 84.862 31.1061C85.0502 30.9103 85.0502 30.9184 87.3165 30.9184L87.6929 38.2442ZM82.5956 51.9414C82.3838 53.7398 81.654 55.4384 80.4945 56.8321C79.3351 58.2258 77.7956 59.2549 76.0621 59.7948C74.3287 60.3348 72.4755 60.3625 70.7265 59.8747C68.9776 59.3869 67.4078 58.4045 66.2069 57.0462C65.0059 55.6879 64.2253 54.0117 63.9593 52.2205C63.6934 50.4292 63.9535 48.5995 64.7082 46.9525C65.4628 45.3055 66.6798 43.9118 68.212 42.9397C69.7442 41.9676 71.526 41.4587 73.342 41.4747C74.6636 41.4856 75.9682 41.7735 77.1709 42.3198C78.3737 42.866 79.4479 43.6583 80.3236 44.6454C81.1993 45.6324 81.8571 46.792 82.2541 48.0489C82.6512 49.3059 82.7787 50.6321 82.6284 51.9414H82.5956ZM84.4856 50.0405C84.1768 47.2711 82.8547 44.7125 80.7723 42.8542C78.6899 40.996 75.9934 39.9686 73.1988 39.9686C70.4042 39.9686 67.7077 40.996 65.6253 42.8542C63.5429 44.7125 62.2208 47.2711 61.912 50.0405H61.2493C60.7465 50.034 60.2666 49.8298 59.9142 49.4723C59.5617 49.1147 59.3652 48.6329 59.3674 48.1316V10.0913C59.3674 9.5914 59.5649 9.11157 59.9171 8.75579C60.2693 8.40002 60.7479 8.19699 61.2493 8.19056H77.4002C77.8517 8.18532 78.2956 8.30733 78.6806 8.54259C79.0656 8.77784 79.3762 9.11677 79.5765 9.5203C87.4147 24.4492 86.9402 23.5029 87.0302 24.2616L87.2265 29.1563H85.1483C84.8358 29.1541 84.526 29.2141 84.2371 29.3329C83.9481 29.4516 83.6858 29.6266 83.4656 29.8477C83.2454 30.0688 83.0717 30.3316 82.9546 30.6205C82.8375 30.9094 82.7794 31.2187 82.7838 31.5303C82.7838 31.6282 82.7838 30.9592 83.0702 37.9994C83.0972 38.6078 83.3561 39.183 83.794 39.6075C84.2319 40.032 84.8158 40.2739 85.4265 40.2837H87.6929L87.9792 46.4673C88.0004 46.9365 87.9254 47.4051 87.759 47.8445C87.5926 48.2838 87.3382 48.6848 87.0113 49.023C86.6845 49.3611 86.2919 49.6293 85.8577 49.8113C85.4235 49.9932 84.9566 50.0851 84.4856 50.0813V50.0405Z"
                                            fill="#2A3541" />
                                        <path opacity="0.4"
                                            d="M79.6784 24.8625H66.831C66.7681 24.8661 66.7051 24.8564 66.6463 24.8338C66.5875 24.8112 66.5342 24.7763 66.49 24.7315C66.4458 24.6867 66.4118 24.633 66.3901 24.574C66.3685 24.515 66.3598 24.4521 66.3646 24.3894V14.3079C66.3598 14.2453 66.3685 14.1823 66.3901 14.1233C66.4118 14.0643 66.4458 14.0106 66.49 13.9658C66.5342 13.921 66.5875 13.886 66.6463 13.8634C66.7051 13.8408 66.7681 13.8311 66.831 13.8348H75.1613C75.3214 13.821 75.4816 13.8598 75.6176 13.9452C75.7535 14.0306 75.8576 14.158 75.9142 14.3079L80.644 23.3453C80.7291 23.5066 80.77 23.6875 80.7626 23.8696C80.7552 24.0517 80.6997 24.2286 80.6017 24.3825C80.5038 24.5364 80.3669 24.6618 80.2047 24.7461C80.0426 24.8303 79.861 24.8705 79.6784 24.8625Z"
                                            fill="#3D4E60" />
                                        <path
                                            d="M76.4621 12.1852C76.2382 11.7272 75.8888 11.3416 75.4544 11.0732C75.02 10.8047 74.5183 10.6643 74.0072 10.668H65.6932C65.3806 10.6658 65.0708 10.7259 64.7818 10.8446C64.4928 10.9633 64.2305 11.1383 64.0102 11.3593C63.79 11.5804 63.6162 11.8431 63.4991 12.132C63.382 12.4209 63.3239 12.7301 63.3283 13.0416V35.1949C63.3161 35.326 63.3314 35.4582 63.3733 35.583C63.4152 35.7079 63.4828 35.8225 63.5718 35.9198C63.6608 36.0172 63.7691 36.095 63.8899 36.1482C64.0107 36.2013 64.1414 36.2288 64.2735 36.2288C64.4055 36.2288 64.5361 36.2013 64.657 36.1482C64.7778 36.095 64.8861 36.0172 64.9751 35.9198C65.064 35.8225 65.1317 35.7079 65.1736 35.583C65.2155 35.4582 65.2308 35.326 65.2186 35.1949V25.4967C65.595 25.5946 64.6539 25.4967 78.6306 25.4967C79.1318 25.4918 79.6234 25.3584 80.0579 25.1093C80.4925 24.8603 80.8554 24.504 81.1119 24.0747C81.3683 23.6454 81.5096 23.1575 81.5222 22.6581C81.5348 22.1586 81.4182 21.6643 81.1837 21.2227L76.4621 12.1852ZM78.5406 23.6043H65.6932C65.6299 23.6079 65.5666 23.5981 65.5075 23.5756C65.4483 23.5531 65.3945 23.5184 65.3497 23.4737C65.3049 23.4291 65.2701 23.3755 65.2475 23.3165C65.2249 23.2575 65.215 23.1944 65.2186 23.1313V13.0498C65.215 13.9867 65.2249 13.9236 65.2475 13.8646C65.2701 13.8056 65.3049 13.752 65.3497 13.7074C65.3945 13.6627 65.4483 13.628 65.5075 13.6055C65.5666 13.583 65.6299 13.5731 65.6932 13.5767H74.0072C74.167 13.5642 74.3267 13.6035 74.4623 13.6888C74.5979 13.774 74.7024 13.9007 74.76 13.0498L79.4816 22.0872C79.5636 22.2464 79.6029 22.424 79.5955 22.6028C79.5882 22.7816 79.5345 22.9554 79.4398 23.1073C79.345 23.2593 79.2124 23.3842 79.0548 23.4698C78.8972 23.5555 78.7201 23.599 78.5406 23.5962V23.6043Z"
                                            fill="#2A3541" />
                                        <path
                                            d="M23.4775 46.0668C22.4927 46.0554 21.5268 46.3362 20.7025 46.8733C19.8782 47.4104 19.2326 48.1796 18.8479 49.0833C18.4631 49.9869 18.3565 50.9841 18.5417 51.9482C18.7268 52.9123 19.1953 53.7999 19.8876 54.498C20.58 55.1962 21.4649 55.6734 22.4299 55.8691C23.395 56.0648 24.3966 55.9702 25.3076 55.5972C26.2185 55.2242 26.9977 54.5897 27.5461 53.7743C28.0944 52.9589 28.3873 51.9994 28.3873 51.0178C28.4028 50.3682 28.2868 49.7222 28.0462 49.1183C27.8057 48.5144 27.4455 47.9651 26.9873 47.503C26.529 47.0409 25.9821 46.6755 25.3791 46.4288C24.776 46.182 24.1293 46.0589 23.4775 46.0668ZM26.3989 51.9639C26.2107 52.5349 25.8562 53.037 25.3807 53.4064C24.9051 53.7758 24.33 53.9957 23.7286 54.038C23.1272 54.0804 22.5267 53.9433 22.0038 53.6442C21.4809 53.3452 21.0591 52.8976 20.7922 52.3587C20.5254 51.8198 20.4256 51.214 20.5055 50.6184C20.5854 50.0227 20.8414 49.4643 21.241 49.0143C21.6405 48.5642 22.1654 48.2429 22.7488 48.0913C23.3322 47.9397 23.9476 47.9646 24.5167 48.163C24.8917 48.2826 25.2388 48.4759 25.5376 48.7315C25.8363 48.9871 26.0806 49.2997 26.2561 49.651C26.4315 50.0023 26.5346 50.3851 26.5591 50.7768C26.5836 51.1685 26.5291 51.561 26.3989 51.9313V51.9639Z"
                                            fill="#2A3541" />
                                        <path
                                            d="M73.2461 46.0667C72.2613 46.0554 71.2954 46.3361 70.4711 46.8732C69.6467 47.4103 69.0012 48.1796 68.6164 49.0832C68.2317 49.9869 68.1251 50.984 68.3102 51.9482C68.4954 52.9123 68.9639 53.7999 69.6562 54.498C70.3485 55.1961 71.2334 55.6733 72.1985 55.8691C73.1635 56.0648 74.1652 55.9701 75.0761 55.5971C75.9871 55.2241 76.7663 54.5896 77.3146 53.7743C77.863 52.9589 78.1558 51.9994 78.1559 51.0177C78.156 49.7145 77.6405 48.4637 76.7214 47.5368C75.8022 46.61 74.5535 46.0818 73.2461 46.0667ZM76.0856 51.9639C75.8771 52.5551 75.4895 53.0673 74.9765 53.4296C74.4635 53.7918 73.8502 53.9863 73.2215 53.9863C72.5928 53.9863 71.9796 53.7918 71.4665 53.4296C70.9535 53.0673 70.566 52.5551 70.3575 51.9639C70.1868 51.4256 70.167 50.8511 70.3 50.3023C70.433 49.7536 70.7139 49.2514 71.1123 48.8501C71.5106 48.4489 72.0114 48.1637 72.5605 48.0253C73.1096 47.887 73.6862 47.9007 74.228 48.0651C74.9538 48.3773 75.5418 48.9408 75.8832 49.6515C76.2246 50.3621 76.2965 51.1719 76.0856 51.9313V51.9639Z"
                                            fill="#2A3541" />
                                        <path
                                            d="M69.6616 28.9414H68.238C68.0004 28.9634 67.7797 29.073 67.619 29.2488C67.4582 29.4246 67.3691 29.654 67.3691 29.8918C67.3691 30.1297 67.4582 30.359 67.619 30.5348C67.7797 30.7106 68.0004 30.8202 68.238 30.8422H69.6616C69.7878 30.8494 69.914 30.8298 70.032 30.7847C70.15 30.7396 70.257 30.6699 70.346 30.5805C70.435 30.491 70.5039 30.3837 70.5481 30.2657C70.5923 30.1476 70.6109 30.0216 70.6025 29.8959C70.6026 29.6456 70.504 29.4053 70.328 29.2267C70.152 29.0482 69.9127 28.9457 69.6616 28.9414Z"
                                            fill="#2A3541" />
                                        <path opacity="0.4"
                                            d="M28.0261 52.3823C27.8372 52.9524 27.4825 53.4536 27.0071 53.8221C26.5318 54.1907 25.9572 54.4099 25.3566 54.452C24.7559 54.4941 24.1562 54.357 23.6339 54.0584C23.1115 53.7597 22.69 53.3129 22.423 52.7747C22.1561 52.2366 22.0557 51.6314 22.1346 51.0362C22.2135 50.441 22.4682 49.8826 22.8662 49.4321C23.2643 48.9816 23.7877 48.6593 24.37 48.5063C24.9522 48.3532 25.567 48.3762 26.1361 48.5725C26.5152 48.6928 26.8661 48.8881 27.1679 48.1466C27.4696 49.4051 27.7161 49.7216 27.8925 50.0772C28.0689 50.4328 28.1716 50.8201 28.1946 51.2161C28.2175 51.6122 28.1602 52.0088 28.0261 52.3823Z"
                                            fill="#2A3541" />
                                        <path opacity="0.4"
                                            d="M77.6149 51.6627C77.4064 52.254 77.0189 52.7662 76.5059 53.1286C75.993 53.4909 75.3798 53.6854 74.7512 53.6854C74.1226 53.6854 73.5095 53.4909 72.9965 53.1286C72.4835 52.7662 72.0961 52.254 71.8876 51.6627C71.717 51.1243 71.6971 50.5497 71.8301 50.0008C71.9631 49.452 72.2439 48.9498 72.6423 48.5484C73.0406 48.1471 73.5413 47.8618 74.0903 47.7235C74.6393 47.5851 75.2158 47.5988 75.7576 47.7632C76.4974 48.0674 77.0972 48.6351 77.4405 49.3558C77.7837 50.0766 77.8459 50.8988 77.6149 51.6627Z"
                                            fill="#2A3541" />
                                        <path d="M53.419 30.4336H42.7646V37.5624H53.419V30.4336Z" stroke="#2A3541"
                                            stroke-width="2" stroke-linecap="round" stroke-linejoin="round" />
                                        <path d="M37.7644 30.4336H20.1709V37.5624H37.7644V30.4336Z" stroke="#2A3541"
                                            stroke-width="2" stroke-linecap="round" stroke-linejoin="round" />
                                        <path d="M52.6331 17.9961H24.6289V22.9953H52.6331V17.9961Z" fill="#D84D5D" />
                                        <path d="M21.6855 25.6758L53.4766 25.6758V18.3757L21.6855 18.3757V25.6758Z"
                                            stroke="#2A3541" stroke-width="2" stroke-linecap="round"
                                            stroke-linejoin="round" />
                                    </g>
                                    <defs>
                                        <clipPath id="clip0_2018_477">
                                            <rect width="90.0135" height="61.9899" fill="white" />
                                        </clipPath>
                                    </defs>
                                </svg>