<svg width="90" height="62" viewBox="0 0 90 62" fill="none"
                                    xmlns="http://www.w3.org/2000/svg">
                                    <g clip-path="url(#clip0_2018_497)">
                                        <path
                                            d="M13.2257 37.9306C13.0493 37.9306 12.8747 37.8955 12.712 37.8273C12.5493 37.759 12.4019 37.6589 12.2782 37.533C12.1545 37.407 12.057 37.2576 11.9915 37.0936C11.926 36.9295 11.8938 36.754 11.8967 36.5773C11.9761 36.5773 11.8967 37.5905 11.8967 2.74397C11.8938 2.56729 11.926 2.39177 11.9915 2.2277C12.057 2.06362 12.1545 1.91424 12.2782 1.78828C12.4019 1.66232 12.5493 1.56228 12.712 1.49401C12.8747 1.42573 13.0493 1.39062 13.2257 1.39065H59.6631C59.8401 1.38966 60.0155 1.42413 60.179 1.49198C60.3425 1.55982 60.4908 1.65966 60.6153 1.78572C60.7398 1.91178 60.8378 2.06147 60.9038 2.22602C60.9697 2.39057 61.0023 2.56667 60.9994 2.74397C61.0861 2.74397 60.9994 1.81762 60.9994 37.9234H38.1598C37.2382 36.9443 36.1265 36.1642 34.8931 35.631C33.6597 35.0979 32.3306 34.8229 30.9873 34.8229C29.644 34.8229 28.3149 35.0979 27.0815 35.631C25.8481 36.1642 24.7365 36.9443 23.8148 37.9234H13.2257V37.9306Z"
                                            fill="white" />
                                        <path
                                            d="M90.0002 41.0053C88.9962 19.7428 89.2779 20.9296 88.6639 19.8296L82.3292 7.59168C82.0092 6.95891 81.5207 6.42728 80.9177 6.05557C80.3147 5.68386 79.6207 5.48665 78.9127 5.48576H64.6543C64.06 5.48305 63.4786 5.65953 62.9858 5.99232V3.03962C62.9896 2.64244 62.9149 2.24844 62.766 1.8803C62.6172 1.51216 62.3971 1.1771 62.1185 0.894563C61.8399 0.612023 61.5081 0.387553 61.1425 0.234021C60.7769 0.0804893 60.3846 0.000936435 59.9882 0H13.5507C13.154 0.000943028 12.7613 0.0804006 12.3953 0.233844C12.0293 0.387288 11.6971 0.611679 11.4179 0.894121C11.1387 1.17656 10.9179 1.5115 10.7683 1.87968C10.6186 2.24786 10.5431 2.6421 10.546 3.03962V36.8729C10.5444 37.6463 10.8371 38.3913 11.3645 38.956C11.8919 39.5207 12.6143 39.8628 13.3846 39.9125V44.0448C13.3901 44.5768 13.602 45.0858 13.9755 45.464C14.3489 45.8422 14.8546 46.06 15.3854 46.0712H21.554C21.7013 47.3824 22.1049 48.6516 22.7419 49.8064C23.3788 50.9612 24.2366 51.979 25.2662 52.8016C26.2959 53.6242 27.4771 54.2355 28.7425 54.6006C30.008 54.9657 31.3329 55.0774 32.6415 54.9294C34.8773 54.6418 36.9532 53.6139 38.5393 52.009C40.1254 50.404 41.1308 48.3142 41.3959 46.0712H43.3966C43.5079 46.6567 43.8173 47.1859 44.2725 47.5695C44.7278 47.9532 45.3011 48.1678 45.8959 48.1772H56.9833C57.5781 48.1678 58.1515 47.9532 58.6067 47.5695C59.062 47.1859 59.3713 46.6567 59.4825 46.0712H65.3188C65.6181 48.7198 66.955 51.1409 69.0355 52.8021C71.1161 54.4632 73.7699 55.2284 76.4135 54.9294C78.6481 54.6403 80.7223 53.6117 82.307 52.0069C83.8917 50.4021 84.896 48.3131 85.1607 46.0712C85.814 46.0688 86.4601 45.9345 87.0605 45.6763C87.6608 45.4181 88.203 45.0414 88.6547 44.5685C89.1064 44.0956 89.4584 43.5364 89.6896 42.9242C89.9208 42.312 90.0264 41.6593 90.0002 41.0053ZM13.5507 38.219C13.3741 38.221 13.1988 38.1874 13.0354 38.1203C12.8719 38.0533 12.7235 37.9541 12.5989 37.8286C12.4743 37.7031 12.3762 37.5539 12.3101 37.3897C12.2441 37.2256 12.2116 37.0499 12.2145 36.8729C12.3011 36.8729 12.2145 37.8861 12.2145 3.03962C12.2116 2.86232 12.2441 2.68622 12.31 2.52167C12.376 2.35712 12.4741 2.20742 12.5986 2.08137C12.723 1.95531 12.8713 1.85538 13.0348 1.78754C13.1983 1.71969 13.3737 1.68531 13.5507 1.68629H59.9882C60.1648 1.68528 60.3399 1.7197 60.503 1.78762C60.6661 1.85555 60.814 1.95556 60.9379 2.08172C61.0618 2.20788 61.1592 2.35768 61.2243 2.5222C61.2895 2.68672 61.3211 2.86267 61.3172 3.03962C61.4039 3.03962 61.3172 2.11327 61.3172 38.219H38.4777C37.5567 37.2401 36.4456 36.4601 35.2128 35.927C33.98 35.394 32.6515 35.119 31.3088 35.119C29.9661 35.119 28.6375 35.394 27.4047 35.927C26.1719 36.4601 25.0609 37.2401 24.1398 38.219H13.5507ZM21.3878 44.385H15.2915C15.2045 44.3782 15.1228 44.3399 15.0617 44.2773C15.0007 44.2148 14.9643 44.1322 14.9593 44.0448V40.1658C14.9593 39.9921 15.0387 39.9125 15.2121 39.8256H22.8758C22.06 41.2213 21.5525 42.7761 21.3878 44.385ZM39.6407 46.0712C39.5079 47.1628 39.1604 48.2171 38.6182 49.1732C38.076 50.1293 37.35 50.9682 36.482 51.6413C35.6141 52.3143 34.6216 52.8082 33.5619 53.0943C32.5022 53.3805 31.3964 53.4532 30.3084 53.3083C28.4843 53.0618 26.7924 52.2187 25.4955 50.9101C24.1986 49.6015 23.3691 47.9005 23.1358 46.0712C22.998 44.7828 23.1597 43.4798 23.6083 42.2644C24.057 41.0491 24.7802 39.9542 25.7217 39.0657C26.0321 38.7586 26.3653 38.4756 26.7185 38.219C28.2614 37.1927 30.1048 36.7179 31.9504 36.8715C33.7961 37.0252 35.536 37.7983 36.8887 39.0657C37.8669 39.9327 38.6262 41.0197 39.1045 42.2373C39.5829 43.455 39.7666 44.7688 39.6407 46.0712ZM57.6984 45.5647C57.6966 45.8085 57.5995 46.0419 57.4281 46.2151C57.2567 46.3882 57.0245 46.4872 56.7811 46.4909H45.6936C45.5478 46.4869 45.4053 46.4464 45.2792 46.3731C45.153 46.2998 45.0472 46.196 44.9713 46.0712C44.8052 45.8179 44.8052 45.6442 44.8052 44.8843C44.807 44.6405 44.9041 44.4071 45.0755 44.234C45.2469 44.0608 45.4791 43.9617 45.7225 43.958H56.81C56.9558 43.962 57.0983 44.0025 57.2244 44.0758C57.3506 44.1491 57.4564 44.253 57.5323 44.3778C57.8212 44.6383 57.7346 44.8048 57.7346 45.5647H57.6984ZM59.367 44.385C59.2705 43.792 58.9656 43.253 58.5073 42.8655C58.0489 42.478 57.4675 42.2674 56.8678 42.2718H45.6936C45.0988 42.2812 44.5255 42.4959 44.0702 42.8795C43.615 43.2631 43.3057 43.7923 43.1944 44.3778H41.1936C41.1131 42.7791 40.5932 41.2337 39.6912 39.9125H61.2016C61.2016 42.6915 61.0355 43.3718 61.7 44.3778L59.367 44.385ZM87.9633 33.9202H86.078C86.0228 33.9223 85.9677 33.9128 85.9163 33.8923C85.865 33.8719 85.8184 33.8409 85.7797 33.8014C85.7409 33.7619 85.7108 33.7147 85.6913 33.6629C85.6718 33.6111 85.6633 33.5557 85.6663 33.5004C85.4135 27.4213 85.3341 27.7614 85.5002 27.5877C85.6663 27.414 85.6663 27.4213 87.6671 27.4213L87.9633 33.9202ZM83.4633 46.0712C83.2512 48.2736 82.1749 50.3014 80.4709 51.7088C78.7669 53.1161 76.5748 53.7878 74.3766 53.5761C72.1783 53.3371 70.1637 52.2365 68.7725 50.5145C67.3813 48.7925 66.7266 46.589 66.9513 44.385C67.1474 42.3049 68.1113 40.3729 69.6544 38.9674C71.1974 37.5619 73.2085 36.784 75.2939 36.7861C76.4599 36.7992 77.6102 37.0569 78.6708 37.5425C79.7313 38.0281 80.6786 38.7309 81.4516 39.6057C82.2246 40.4804 82.8062 41.5076 83.1589 42.6212C83.5116 43.7348 83.6276 44.91 83.4994 46.0712H83.4633ZM85.1246 44.385C84.9749 43.0672 84.5669 41.792 83.9241 40.6326C83.2813 39.4731 82.4164 38.4522 81.3788 37.6285C80.3413 36.8048 79.1517 36.1945 77.8782 35.8326C76.6046 35.4707 75.2723 35.3644 73.9576 35.5196C71.7207 35.8076 69.644 36.8365 68.0578 38.4429C66.4715 40.0492 65.4668 42.1408 65.2032 44.385H64.6182C64.1731 44.3812 63.7476 44.2008 63.4349 43.8834C63.1222 43.566 62.9477 43.1375 62.9496 42.6915V8.98123C62.9496 8.53651 63.1249 8.10981 63.4374 7.79399C63.7499 7.47817 64.1743 7.29884 64.6182 7.29503H78.8766C79.2742 7.29089 79.6648 7.3994 80.0035 7.60811C80.3422 7.81683 80.6151 8.11727 80.7907 8.47467C87.7105 21.7185 87.2915 20.879 87.3782 21.552L87.5444 25.8943H85.7097C85.4344 25.8933 85.1616 25.9473 84.9074 26.053C84.6531 26.1588 84.4224 26.3142 84.2288 26.5102C84.0351 26.7062 83.8824 26.939 83.7795 27.1949C83.6766 27.4507 83.6256 27.7245 83.6294 28.0003C83.6294 28.0871 83.6294 27.4936 83.875 33.7392C83.9006 34.2796 84.1308 34.7899 84.5185 35.1663C84.9063 35.5427 85.4226 35.7571 85.9625 35.7656H87.9633L88.2161 41.2513C88.2348 41.6681 88.1684 42.0844 88.0211 42.4747C87.8737 42.865 87.6485 43.221 87.3591 43.5211C87.0697 43.8212 86.7224 44.059 86.3382 44.22C85.9539 44.381 85.541 44.4617 85.1246 44.4574V44.385Z"
                                            fill="#2A3541" />
                                        <path
                                            d="M78.0387 10.811C77.8404 10.4052 77.5319 10.0635 77.1486 9.82542C76.7653 9.58732 76.3228 9.46241 75.8718 9.4649H68.5403C68.2644 9.46294 67.9909 9.51611 67.7358 9.62144C67.4807 9.72677 67.2492 9.88212 67.0548 10.0783C66.8604 10.2744 66.707 10.5074 66.6036 10.7637C66.5002 11.02 66.449 11.2944 66.4529 11.5708V31.2267C66.4455 31.3392 66.4621 31.452 66.5015 31.5576C66.5409 31.6632 66.6022 31.7591 66.6815 31.8391C66.7607 31.9192 66.856 31.9815 66.961 32.0219C67.066 32.0623 67.1784 32.0799 67.2907 32.0735C67.4025 32.0788 67.5141 32.0605 67.6182 32.0196C67.7224 31.9787 67.8167 31.9162 67.8952 31.8363C67.9736 31.7564 68.0343 31.6608 68.0733 31.5557C68.1122 31.4507 68.1286 31.3386 68.1214 31.2267V22.6218C68.4537 22.7087 67.623 22.6218 79.9601 22.6218C80.4017 22.6155 80.8344 22.4959 81.2168 22.2744C81.5992 22.0529 81.9186 21.737 82.1446 21.3568C82.3705 20.9765 82.4955 20.5446 82.5076 20.1022C82.5197 19.6598 82.4186 19.2217 82.2137 18.8296L78.0387 10.811ZM79.8734 20.9429H68.5403C68.4845 20.946 68.4286 20.9373 68.3764 20.9174C68.3241 20.8974 68.2767 20.8665 68.2371 20.8269C68.1976 20.7873 68.1668 20.7397 68.1469 20.6874C68.1269 20.635 68.1183 20.579 68.1214 20.5231V11.5781C68.1183 11.5221 68.1269 11.4662 68.1469 11.4138C68.1668 11.3615 68.1976 11.3139 68.2371 11.2743C68.2767 11.2346 68.3241 11.2039 68.3764 11.1839C68.4286 11.1639 68.4845 11.1552 68.5403 11.1583H75.8718C76.0137 11.148 76.1552 11.1831 76.2759 11.2585C76.3967 11.334 76.4904 11.4458 76.5435 11.5781L80.7113 19.5968C80.784 19.7386 80.8186 19.8968 80.8118 20.056C80.8051 20.2152 80.757 20.37 80.6725 20.5051C80.588 20.6401 80.4699 20.7508 80.3298 20.8263C80.1897 20.9018 80.0324 20.9394 79.8734 20.9356V20.9429Z"
                                            fill="#2A3541" />
                                        <path
                                            d="M31.2687 40.8247C30.6959 40.8247 30.1287 40.9385 29.6001 41.1594C29.0714 41.3803 28.5917 41.7041 28.1887 42.1119C27.7857 42.5197 27.4674 43.0035 27.2521 43.5354C27.0369 44.0672 26.9291 44.6366 26.9348 45.2104C26.9291 45.7843 27.0369 46.3536 27.2521 46.8854C27.4674 47.4173 27.7857 47.9011 28.1887 48.3089C28.5917 48.7167 29.0714 49.0405 29.6001 49.2614C30.1287 49.4823 30.6959 49.5961 31.2687 49.5961C31.8415 49.5961 32.4086 49.4823 32.9372 49.2614C33.4659 49.0405 33.9456 48.7167 34.3486 48.3089C34.7516 47.9011 35.0699 47.4173 35.2851 46.8854C35.5004 46.3536 35.6083 45.7843 35.6025 45.2104C35.6172 44.6342 35.5154 44.0608 35.3034 43.5249C35.0913 42.9891 34.7733 42.5017 34.3685 42.092C33.9637 41.6824 33.4805 41.359 32.9478 41.1412C32.4151 40.9234 31.8439 40.8158 31.2687 40.8247ZM33.8545 46.0499C33.6704 46.5745 33.3284 47.0289 32.8755 47.3503C32.4227 47.6717 31.8814 47.8443 31.3264 47.8443C30.7714 47.8443 30.2301 47.6717 29.7773 47.3503C29.3245 47.0289 28.9824 46.5745 28.7983 46.0499C28.6349 45.5747 28.609 45.063 28.7235 44.5738C28.8381 44.0845 29.0885 43.6376 29.4459 43.2849C29.8032 42.9322 30.2528 42.688 30.7428 42.5805C31.2328 42.473 31.7432 42.5066 32.2149 42.6775C32.5502 42.7861 32.8599 42.9617 33.1256 43.1937C33.3912 43.4256 33.6072 43.7091 33.7604 44.027C33.9137 44.3449 34.001 44.6905 34.0172 45.0432C34.0334 45.3959 33.978 45.7482 33.8545 46.0789V46.0499Z"
                                            fill="#2A3541" />
                                        <path
                                            d="M75.2433 40.8242C74.6705 40.8242 74.1033 40.9379 73.5747 41.1589C73.046 41.3798 72.5664 41.7036 72.1633 42.1114C71.7603 42.5192 71.442 43.003 71.2268 43.5349C71.0115 44.0667 70.9037 44.6361 70.9094 45.2099C70.9037 45.7838 71.0115 46.3531 71.2268 46.8849C71.442 47.4168 71.7603 47.9006 72.1633 48.3084C72.5664 48.7162 73.046 49.04 73.5747 49.2609C74.1033 49.4818 74.6705 49.5956 75.2433 49.5955C75.8161 49.5956 76.3832 49.4818 76.9118 49.2609C77.4405 49.04 77.9202 48.7162 78.3232 48.3084C78.7262 47.9006 79.0445 47.4168 79.2598 46.8849C79.475 46.3531 79.5829 45.7838 79.5771 45.2099C79.5772 44.0543 79.122 42.9452 78.3104 42.124C77.4989 41.3028 76.3966 40.8357 75.2433 40.8242ZM77.7425 46.0494C77.5584 46.5739 77.2163 47.0283 76.7635 47.3498C76.3106 47.6712 75.7694 47.8438 75.2144 47.8438C74.6594 47.8438 74.1181 47.6712 73.6653 47.3498C73.2124 47.0283 72.8704 46.5739 72.6863 46.0494C72.535 45.571 72.5172 45.0602 72.6348 44.5724C72.7525 44.0847 73.0011 43.6384 73.3538 43.2821C73.7065 42.9258 74.1497 42.673 74.6356 42.551C75.1214 42.429 75.6313 42.4424 76.11 42.59C76.7616 42.8682 77.2863 43.3798 77.5815 44.0249C77.8767 44.67 77.9212 45.4021 77.7063 46.0783L77.7425 46.0494Z"
                                            fill="#2A3541" />
                                        <path
                                            d="M72.0361 25.6611H70.7865C70.6748 25.6557 70.5631 25.6741 70.459 25.7149C70.3548 25.7558 70.2605 25.8182 70.1821 25.8982C70.1036 25.9781 70.0429 26.0737 70.004 26.1787C69.965 26.2838 69.9486 26.3959 69.9558 26.5077C69.9485 26.6193 69.9649 26.7311 70.0039 26.8358C70.043 26.9405 70.1037 27.0357 70.1823 27.1151C70.2608 27.1945 70.3553 27.2562 70.4595 27.2962C70.5637 27.3362 70.6751 27.3537 70.7865 27.3473H72.0361C72.148 27.3547 72.2603 27.3381 72.3653 27.2986C72.4703 27.259 72.5657 27.1974 72.6451 27.1179C72.7244 27.0384 72.7859 26.9429 72.8254 26.8376C72.8649 26.7324 72.8814 26.6199 72.8739 26.5077C72.8739 26.2844 72.7859 26.0702 72.629 25.9116C72.4721 25.753 72.259 25.663 72.0361 25.6611Z"
                                            fill="#2A3541" />
                                        <path
                                            d="M79.454 47.9232C78.45 26.6607 78.7316 27.8476 78.1177 26.7476L71.783 14.5097C71.4617 13.8779 70.9729 13.3471 70.3702 12.9756C69.7674 12.604 69.0741 12.4062 68.3665 12.4036H54.1081C53.5137 12.4009 52.9324 12.5775 52.4395 12.9103V9.9575C52.4424 9.55998 52.3668 9.16583 52.2172 8.79765C52.0675 8.42947 51.8468 8.09453 51.5676 7.81209C51.2884 7.52965 50.9562 7.30526 50.5902 7.15181C50.2242 6.99837 49.8315 6.91891 49.4347 6.91797H3.01175C2.61499 6.91891 2.22227 6.99837 1.85625 7.15181C1.49023 7.30526 1.15816 7.52965 0.878943 7.81209C0.59973 8.09453 0.378924 8.42947 0.229286 8.79765C0.0796474 9.16583 0.00405835 9.55998 0.00691393 9.9575V43.7908C0.00519938 44.5631 0.296971 45.307 0.822865 45.8716C1.34876 46.4361 2.06937 46.779 2.83841 46.8304V50.9555C2.84392 51.4875 3.05582 51.9965 3.42925 52.3747C3.80269 52.7529 4.30836 52.9707 4.83922 52.982H11.0149C11.1622 54.2931 11.5659 55.5623 12.2029 56.7171C12.8398 57.8719 13.6976 58.8897 14.7272 59.7123C15.7568 60.5349 16.9381 61.1462 18.2036 61.5113C19.469 61.8764 20.7939 61.9881 22.1025 61.8401C24.336 61.5465 26.4084 60.5166 27.9934 58.9129C29.5784 57.3091 30.5858 55.2225 30.8569 52.982H32.8576C32.9689 53.5674 33.2783 54.0965 33.7335 54.4802C34.1888 54.8638 34.7621 55.0784 35.3569 55.0879H46.4443C47.0391 55.0784 47.6124 54.8638 48.0677 54.4802C48.5229 54.0965 48.8323 53.5674 48.9436 52.982H54.7798C55.0774 55.6277 56.4105 58.047 58.4864 59.709C60.5624 61.3711 63.2116 62.1401 65.8528 61.8474C68.0887 61.5597 70.1646 60.5318 71.7507 58.9269C73.3368 57.322 74.3422 55.2321 74.6073 52.9892C75.2606 52.9868 75.9066 52.8525 76.507 52.5943C77.1073 52.3361 77.6495 51.9593 78.1013 51.4864C78.553 51.0135 78.905 50.4543 79.1362 49.8421C79.3673 49.2298 79.473 48.5773 79.4467 47.9232H79.454Z"
                                            fill="white" />
                                        <path
                                            d="M2.68002 44.9C2.50337 44.901 2.32831 44.8665 2.16518 44.7986C2.00205 44.7307 1.85412 44.6306 1.73022 44.5045C1.60633 44.3783 1.50899 44.2286 1.44384 44.0641C1.37869 43.8996 1.34704 43.7236 1.3509 43.5467C1.43036 43.5467 1.3509 44.5599 1.3509 9.71336C1.34702 9.53674 1.37869 9.36111 1.44393 9.19699C1.50916 9.03287 1.60667 8.8836 1.73066 8.75801C1.85466 8.63242 2.00262 8.53308 2.16571 8.46595C2.3288 8.39882 2.50371 8.36529 2.68002 8.36727H49.1174C49.294 8.36531 49.4693 8.39882 49.6327 8.46586C49.7962 8.53291 49.9447 8.63208 50.0692 8.75757C50.1938 8.88306 50.292 9.0323 50.358 9.19646C50.424 9.36062 50.4566 9.53639 50.4537 9.71336C50.5331 9.71336 50.4537 8.78701 50.4537 44.9H27.607C26.6859 43.9211 25.5748 43.1411 24.342 42.608C23.1092 42.0749 21.7807 41.7999 20.438 41.7999C19.0953 41.7999 17.7668 42.0749 16.534 42.608C15.3012 43.1411 14.1901 43.9211 13.269 44.9H2.68002Z"
                                            fill="white" />
                                        <path
                                            d="M70.3385 29.0549H58.9982C58.9417 29.0582 58.8852 29.0493 58.8324 29.0289C58.7796 29.0085 58.7318 28.977 58.6921 28.9366C58.6524 28.8961 58.6218 28.8477 58.6024 28.7945C58.5829 28.7413 58.575 28.6845 58.5792 28.628V19.6902C58.575 19.6337 58.5829 19.5768 58.6024 19.5236C58.6218 19.4704 58.6524 19.422 58.6921 19.3815C58.7318 19.3411 58.7796 19.3096 58.8324 19.2892C58.8852 19.2688 58.9417 19.2599 58.9982 19.2632H66.3368C66.4786 19.2538 66.6197 19.2903 66.7393 19.3671C66.8589 19.444 66.9507 19.5572 67.0014 19.6902L71.1691 27.7016C71.2427 27.8436 71.2784 28.0023 71.2726 28.1621C71.2669 28.322 71.2199 28.4777 71.1362 28.6139C71.0526 28.7502 70.9351 28.8624 70.7953 28.9397C70.6555 29.017 70.4981 29.0567 70.3385 29.0549Z"
                                            fill="#D84D5D" />
                                        <path
                                            d="M79.454 48.0053C78.45 26.7428 78.7316 27.9296 78.1177 26.8296L71.783 14.5989C71.4634 13.9653 70.9751 13.4326 70.3721 13.0596C69.7692 12.6867 69.0751 12.4881 68.3665 12.4857H54.1081C53.5143 12.4865 52.9339 12.6627 52.4395 12.9923V10.0395C52.4424 9.64201 52.3668 9.24786 52.2172 8.87968C52.0675 8.5115 51.8468 8.17656 51.5676 7.89412C51.2884 7.61168 50.9562 7.38729 50.5902 7.23384C50.2242 7.0804 49.8315 7.00094 49.4347 7H3.01175C2.61499 7.00094 2.22227 7.0804 1.85625 7.23384C1.49023 7.38729 1.15816 7.61168 0.878943 7.89412C0.59973 8.17656 0.378924 8.5115 0.229286 8.87968C0.0796474 9.24786 0.00405835 9.64201 0.00691393 10.0395V43.8728C0.00519938 44.6451 0.296971 45.389 0.822865 45.9536C1.34876 46.5181 2.06937 46.861 2.83841 46.9125V51.0448C2.84209 51.5774 3.0534 52.0874 3.42722 52.466C3.80104 52.8446 4.30777 53.0618 4.83922 53.0712H11.0149C11.1622 54.3824 11.5659 55.6516 12.2029 56.8064C12.8398 57.9612 13.6976 58.979 14.7272 59.8016C15.7568 60.6242 16.9381 61.2355 18.2036 61.6006C19.469 61.9657 20.7939 62.0774 22.1025 61.9294C24.336 61.6358 26.4084 60.6059 27.9934 59.0021C29.5784 57.3984 30.5858 55.3118 30.8569 53.0712H32.8576C32.9689 53.6567 33.2783 54.1858 33.7335 54.5694C34.1888 54.9531 34.7621 55.1677 35.3569 55.1772H46.4443C47.0391 55.1677 47.6124 54.9531 48.0677 54.5694C48.5229 54.1858 48.8323 53.6567 48.9436 53.0712H54.7798C55.0792 55.7156 56.413 58.1331 58.4887 59.7936C60.5645 61.4542 63.2128 62.2223 65.8528 61.9294C68.0887 61.6418 70.1646 60.6139 71.7507 59.009C73.3368 57.404 74.3422 55.3142 74.6073 53.0712C75.2606 53.0688 75.9066 52.9345 76.507 52.6763C77.1073 52.4181 77.6495 52.0413 78.1013 51.5684C78.553 51.0956 78.905 50.5363 79.1362 49.9241C79.3673 49.3119 79.473 48.6593 79.4467 48.0053H79.454ZM2.99729 45.2262C2.82092 45.2262 2.64636 45.1911 2.48369 45.1228C2.32101 45.0545 2.17349 44.9545 2.04979 44.8285C1.92609 44.7026 1.82864 44.5532 1.76314 44.3891C1.69764 44.2251 1.66539 44.0495 1.66827 43.8728C1.74772 43.8728 1.66827 44.886 1.66827 10.0395C1.66538 9.86319 1.69764 9.68808 1.76323 9.52441C1.82881 9.36073 1.92643 9.21179 2.05023 9.0864C2.17403 8.96101 2.32158 8.86173 2.48422 8.79425C2.64686 8.72677 2.82126 8.69246 2.99729 8.69345H49.4347C49.6114 8.69149 49.7866 8.72508 49.95 8.79213C50.1135 8.85918 50.2619 8.95835 50.3865 9.08384C50.5111 9.20932 50.6093 9.35857 50.6753 9.52273C50.7413 9.68688 50.7739 9.86257 50.771 10.0395C50.8577 10.0395 50.771 9.11319 50.771 45.2262H27.9315C27.0104 44.2461 25.8989 43.4652 24.6654 42.9315C23.4319 42.3977 22.1025 42.1223 20.7589 42.1223C19.4153 42.1223 18.086 42.3977 16.8525 42.9315C15.619 43.4652 14.5075 44.2461 13.5864 45.2262H3.01175H2.99729ZM10.8344 51.3849H4.75255C4.66548 51.3781 4.58377 51.3399 4.52268 51.2773C4.46159 51.2148 4.4252 51.1322 4.42023 51.0448V47.1658C4.42023 46.9993 4.49974 46.9125 4.66588 46.8256H12.3368C11.5164 48.2203 11.004 49.775 10.8344 51.3849ZM29.0944 53.0712C28.9599 54.1627 28.6109 55.2167 28.0677 56.1723C27.5245 57.128 26.7978 57.9664 25.9295 58.6392C25.0613 59.3121 24.0686 59.8059 23.0088 60.0924C21.949 60.3788 20.8432 60.4523 19.755 60.3083C17.9322 60.0603 16.242 59.2166 14.9465 57.9081C13.651 56.5996 12.8225 54.8995 12.5896 53.0712C12.4531 51.7835 12.6147 50.4815 13.062 49.2666C13.5092 48.0516 14.2299 46.9563 15.1682 46.0657C15.4845 45.7645 15.8198 45.484 16.1722 45.2262C17.7139 44.1976 19.5571 43.7209 21.4031 43.8733C23.249 44.0257 24.9896 44.7982 26.3424 46.0657C27.3202 46.9331 28.0792 48.02 28.5575 49.2376C29.0358 50.4551 29.2198 51.7688 29.0944 53.0712ZM47.1883 52.5646C47.1864 52.8084 47.0894 53.0419 46.918 53.2151C46.7466 53.3882 46.5144 53.4872 46.271 53.4909H35.1835C35.0377 53.4869 34.8953 53.4464 34.7691 53.3731C34.643 53.2998 34.5371 53.196 34.4612 53.0712C34.2951 52.8179 34.2951 52.6515 34.2951 51.8916C34.2969 51.647 34.3937 51.4127 34.5649 51.2385C34.7362 51.0642 34.9684 50.9636 35.2124 50.958H46.2999C46.4462 50.9634 46.5889 51.0053 46.715 51.0799C46.8411 51.1544 46.9467 51.2592 47.0222 51.3849C47.2678 51.6382 47.1883 51.8047 47.1883 52.5646ZM48.8568 51.3849C48.7574 50.7919 48.4507 50.2537 47.9915 49.8666C47.5323 49.4794 46.9506 49.2686 46.3504 49.2718H35.1835C34.5876 49.2839 34.0138 49.5003 33.5577 49.8848C33.1017 50.2693 32.7908 50.7987 32.677 51.3849H30.6763C30.6034 49.7837 30.0855 48.2347 29.1811 46.9125H50.6843C50.6843 49.6987 50.511 50.3717 51.1827 51.3849H48.8568ZM77.4532 40.9202H75.5318C75.476 40.9233 75.4201 40.9146 75.3679 40.8946C75.3156 40.8746 75.2682 40.8438 75.2286 40.8042C75.1891 40.7645 75.1583 40.717 75.1384 40.6647C75.1184 40.6123 75.1097 40.5564 75.1129 40.5004C74.8673 34.4213 74.7806 34.7614 74.9468 34.595C75.1129 34.4285 75.1129 34.4213 77.1137 34.4213L77.4532 40.9202ZM72.9459 53.0712C72.8418 54.1624 72.5242 55.2223 72.0111 56.1904C71.4981 57.1585 70.7997 58.0157 69.9559 58.7134C69.112 59.411 68.1393 59.9352 67.0933 60.256C66.0472 60.5768 64.9482 60.6881 63.8593 60.5833C61.6648 60.3373 59.6563 59.2327 58.271 57.5099C56.8856 55.787 56.2357 53.5856 56.4628 51.3849C56.6589 49.3067 57.6221 47.3767 59.1638 45.9725C60.7055 44.5684 62.7148 43.7912 64.7983 43.7933C65.9594 43.8123 67.1037 44.0741 68.1579 44.5621C69.2121 45.0501 70.1529 45.7534 70.92 46.6269C71.6871 47.5004 72.2635 48.5248 72.6124 49.6346C72.9613 50.7443 73.0749 51.9149 72.9459 53.0712ZM74.6145 51.3849C74.4648 50.0674 74.0568 48.7925 73.4139 47.6334C72.771 46.4744 71.9059 45.4539 70.8683 44.6308C69.8306 43.8077 68.6409 43.1981 67.3674 42.837C66.094 42.476 64.7618 42.3705 63.4475 42.5268C61.2117 42.8144 59.1358 43.8423 57.5497 45.4472C55.9636 47.0521 54.9582 49.142 54.6931 51.3849H54.1081C53.6642 51.3811 53.2398 51.2018 52.9273 50.886C52.6148 50.5702 52.4395 50.1434 52.4395 49.6987V15.945C52.4395 15.5003 52.6148 15.0736 52.9273 14.7578C53.2398 14.4419 53.6642 14.2626 54.1081 14.2588H68.3665C68.7639 14.2555 69.1542 14.3644 69.4927 14.573C69.8313 14.7817 70.1043 15.0816 70.2806 15.4385C77.2004 28.6895 76.7814 27.8428 76.8681 28.5158L77.0342 32.858H75.1996C74.9237 32.8561 74.6502 32.9094 74.3951 32.0147C74.14 33.12 73.9084 33.2753 73.714 33.4714C73.5196 33.6676 73.3662 33.9007 73.2628 34.157C73.1595 34.4133 73.1082 34.6876 73.1121 34.9641C73.1121 35.0509 73.1121 34.4574 73.3649 40.703C73.3888 41.244 73.6184 41.7553 74.0065 42.132C74.3947 42.5088 74.912 42.7226 75.4523 42.7294H77.4532L77.6988 48.2151C77.7185 48.6316 77.653 49.0477 77.5065 49.4379C77.36 49.8282 77.1354 50.1843 76.8466 50.4845C76.5578 50.7847 76.2109 51.0226 75.827 51.1837C75.4432 51.3447 75.0306 51.4256 74.6145 51.4212V51.3849Z"
                                            fill="#2A3541" />
                                        <path
                                            d="M67.4929 17.8109C67.2939 17.4057 66.9852 17.0646 66.6021 16.8266C66.2189 16.5886 65.7768 16.4632 65.326 16.4649H57.9872C57.712 16.4639 57.4393 16.5179 57.185 16.6236C56.9308 16.7294 56.7 16.8848 56.5064 17.0809C56.3127 17.2769 56.16 17.5096 56.0571 17.7654C55.9542 18.0213 55.9031 18.2951 55.907 18.5709V38.234C55.8996 38.3456 55.916 38.4573 55.9551 38.562C55.9941 38.6668 56.055 38.7619 56.1335 38.8413C56.212 38.9207 56.3065 38.9825 56.4107 39.0225C56.5148 39.0625 56.6263 39.0799 56.7377 39.0735C56.8496 39.0809 56.9619 39.0643 57.0669 39.0248C57.1719 38.9852 57.2673 38.9237 57.3467 38.8442C57.426 38.7647 57.4875 38.6691 57.5269 38.5639C57.5664 38.4587 57.583 38.3462 57.5755 38.234V29.6291C57.9078 29.7087 57.0699 29.6291 69.4142 29.6291C69.8563 29.6222 70.2891 29.5017 70.6715 29.2794C71.0539 29.057 71.373 28.7401 71.5983 28.359C71.8236 27.9779 71.9477 27.5453 71.9586 27.1025C71.9695 26.6597 71.8669 26.2215 71.6606 25.8297L67.4929 17.8109ZM69.3275 27.9428H57.9872C57.9317 27.9461 57.8761 27.9374 57.8242 27.9174C57.7723 27.8974 57.7253 27.8664 57.6863 27.8267C57.6473 27.7869 57.6172 27.7393 57.5981 27.6869C57.579 27.6346 57.5713 27.5787 57.5755 27.5231V18.5781C57.5713 18.5225 57.579 18.4667 57.5981 18.4143C57.6172 18.362 57.6473 18.3143 57.6863 18.2746C57.7253 18.2348 57.7723 18.2039 57.8242 18.1838C57.8761 18.1638 57.9317 18.1551 57.9872 18.1584H65.326C65.4673 18.1462 65.6087 18.1805 65.7286 18.2563C65.8486 18.3321 65.9406 18.4451 65.9905 18.5781L70.1654 26.5968C70.2381 26.7385 70.2728 26.8968 70.266 27.0561C70.2592 27.2153 70.2112 27.37 70.1267 27.505C70.0421 27.6401 69.9241 27.7507 69.784 27.8262C69.6439 27.9017 69.4866 27.9394 69.3275 27.9356V27.9428Z"
                                            fill="#2A3541" />
                                        <path
                                            d="M20.7228 47.8521C20.15 47.8521 19.5828 47.9658 19.0542 48.1867C18.5255 48.4077 18.0458 48.7314 17.6428 49.1392C17.2398 49.5471 16.9215 50.0309 16.7062 50.5627C16.491 51.0946 16.3832 51.6639 16.3889 52.2378C16.3832 52.8117 16.491 53.3809 16.7062 53.9128C16.9215 54.4446 17.2398 54.9285 17.6428 55.3363C18.0458 55.7442 18.5255 56.0678 19.0542 56.2888C19.5828 56.5097 20.15 56.6234 20.7228 56.6234C21.2956 56.6234 21.8627 56.5097 22.3913 56.2888C22.92 56.0678 23.3996 55.7442 23.8026 55.3363C24.2056 54.9285 24.524 54.4446 24.7392 53.9128C24.9544 53.3809 25.0624 52.8117 25.0566 52.2378C25.0713 51.6615 24.9695 51.0882 24.7575 50.5523C24.5454 50.0164 24.2274 49.5291 23.8226 49.1195C23.4178 48.7098 22.9346 48.3863 22.4019 48.1685C21.8692 47.9507 21.298 47.8431 20.7228 47.8521ZM23.3086 53.0845C23.1245 53.609 22.7825 54.0634 22.3296 54.3849C21.8768 54.7063 21.3355 54.879 20.7805 54.879C20.2255 54.879 19.6843 54.7063 19.2314 54.3849C18.7786 54.0634 18.4365 53.609 18.2524 53.0845C18.0871 52.6089 18.0598 52.0962 18.1735 51.6057C18.2873 51.1152 18.5375 50.667 18.8951 50.3132C19.2528 49.9594 19.7032 49.7145 20.1942 49.6068C20.6851 49.4991 21.1965 49.5331 21.6689 49.7048C22.001 49.8146 22.3079 49.9899 22.5711 50.2206C22.8344 50.4512 23.0488 50.7323 23.2016 51.0475C23.3545 51.3626 23.4428 51.7052 23.4611 52.0551C23.4795 52.405 23.4276 52.755 23.3086 53.0845Z"
                                            fill="#2A3541" />
                                        <path
                                            d="M64.6612 47.8516C64.0884 47.8515 63.5213 47.9653 62.9927 48.1862C62.464 48.4071 61.9843 48.7309 61.5813 49.1387C61.1783 49.5465 60.86 50.0303 60.6447 50.5622C60.4295 51.094 60.3216 51.6634 60.3274 52.2373C60.3216 52.8111 60.4295 53.3804 60.6447 53.9123C60.86 54.4441 61.1783 54.928 61.5813 55.3358C61.9843 55.7436 62.464 56.0673 62.9927 56.2882C63.5213 56.5092 64.0884 56.6229 64.6612 56.6229C65.234 56.6229 65.8012 56.5092 66.3298 56.2882C66.8585 56.0673 67.3382 55.7436 67.7412 55.3358C68.1442 54.928 68.4625 54.4441 68.6777 53.9123C68.893 53.3804 69.0008 52.8111 68.9951 52.2373C68.9952 51.0816 68.5399 49.9726 67.7284 49.1514C66.9169 48.3301 65.8146 47.863 64.6612 47.8516ZM67.1604 53.084C66.9764 53.6085 66.6343 54.0629 66.1815 54.3844C65.7286 54.7058 65.1873 54.8785 64.6324 54.8785C64.0774 54.8785 63.5361 54.7058 63.0832 54.3844C62.6304 54.0629 62.2883 53.6085 62.1043 53.084C61.9537 52.6063 61.9361 52.0966 62.0536 51.6097C62.171 51.1228 62.4189 50.6772 62.7705 50.3212C63.1222 49.9651 63.5642 49.7121 64.0489 49.5894C64.5336 49.4666 65.0425 49.4788 65.5208 49.6247C66.1749 49.8932 66.7055 50.3966 67.0088 51.0364C67.312 51.6762 67.3661 52.4063 67.1604 53.084Z"
                                            fill="#2A3541" />
                                        <g filter="url(#filter0_d_2018_497)">
                                            <path
                                                d="M61.5195 32.6608H60.2699C60.1582 32.6555 60.0465 32.6738 59.9424 32.7147C59.8382 32.7556 59.7438 32.8181 59.6654 32.898C59.587 32.9779 59.5263 33.0735 59.4874 33.1786C59.4484 33.2836 59.432 33.3957 59.4392 33.5076C59.4319 33.6191 59.4483 33.7309 59.4873 33.8356C59.5264 33.9403 59.5871 34.0356 59.6657 34.1149C59.7442 34.1943 59.8387 34.256 59.9429 34.296C60.0471 34.3361 60.1585 34.3535 60.2699 34.3471H61.5195C61.6308 34.3535 61.7423 34.3361 61.8465 34.296C61.9506 34.256 62.0451 34.1943 62.1236 34.1149C62.2022 34.0356 62.263 33.9403 62.302 33.8356C62.3411 33.7309 62.3575 33.6191 62.3501 33.5076C62.3511 33.3973 62.3304 33.288 62.2891 33.1857C62.2479 33.0835 62.187 32.9904 62.1098 32.9118C62.0327 32.8332 61.9409 32.7706 61.8396 32.7275C61.7383 32.6844 61.6295 32.6618 61.5195 32.6608Z"
                                                fill="#2A3541" />
                                        </g>
                                        <path opacity="0.4"
                                            d="M24.7388 53.4746C24.5547 53.9992 24.2126 54.4536 23.7598 54.775C23.3069 55.0965 22.7657 55.2691 22.2107 55.2691C21.6557 55.2691 21.1144 55.0965 20.6616 54.775C20.2087 54.4536 19.8667 53.9992 19.6826 53.4746C19.5213 52.9989 19.4973 52.4874 19.6132 51.9986C19.7291 51.5098 19.9802 51.0636 20.3378 50.7114C20.6954 50.3592 21.1448 50.1153 21.6346 50.0075C22.1243 49.8997 22.6344 49.9325 23.1063 50.1021C23.4381 50.211 23.7447 50.3857 24.0076 50.6158C24.2706 50.8458 24.4846 51.1266 24.6369 51.4413C24.7893 51.756 24.8768 52.0982 24.8943 52.4476C24.9118 52.7969 24.8589 53.1462 24.7388 53.4746Z"
                                            fill="#2A3541" />
                                        <path opacity="0.4"
                                            d="M68.5116 52.8388C68.3275 53.3633 67.9855 53.8178 67.5326 54.1392C67.0798 54.4606 66.5385 54.6332 65.9835 54.6332C65.4285 54.6332 64.8872 54.4606 64.4344 54.1392C63.9815 53.8178 63.6395 53.3633 63.4554 52.8388C63.3041 52.3604 63.2863 51.8496 63.404 51.3619C63.5216 50.8741 63.7703 50.4279 64.1229 50.0715C64.4756 49.7152 64.9189 49.4623 65.4047 49.3403C65.8906 49.2183 66.4004 49.2318 66.8792 49.3794C67.5309 49.6506 68.0589 50.1548 68.3606 50.7941C68.6622 51.4333 68.716 52.162 68.5116 52.8388Z"
                                            fill="#2A3541" />
                                    </g>
                                    <defs>
                                        <filter id="filter0_d_2018_497" x="55.4375" y="32.6599" width="10.9141"
                                            height="9.68848" filterUnits="userSpaceOnUse"
                                            color-interpolation-filters="sRGB">
                                            <feFlood flood-opacity="0" result="BackgroundImageFix" />
                                            <feColorMatrix in="SourceAlpha" type="matrix"
                                                values="0 0 0 0 0 0 0 0 0 0 0 0 0 0 0 0 0 0 127 0" result="hardAlpha" />
                                            <feOffset dy="4" />
                                            <feGaussianBlur stdDeviation="2" />
                                            <feComposite in2="hardAlpha" operator="out" />
                                            <feColorMatrix type="matrix"
                                                values="0 0 0 0 0 0 0 0 0 0 0 0 0 0 0 0 0 0 0.25 0" />
                                            <feBlend mode="normal" in2="BackgroundImageFix"
                                                result="effect1_dropShadow_2018_497" />
                                            <feBlend mode="normal" in="SourceGraphic" in2="effect1_dropShadow_2018_497"
                                                result="shape" />
                                        </filter>
                                        <clipPath id="clip0_2018_497">
                                            <rect width="90" height="62" fill="white" />
                                        </clipPath>
                                    </defs>
                                </svg>